<svg width="16" height="16" viewBox="0 0 16 16" fill="white" xmlns="http://www.w3.org/2000/svg"><path d="M0.814121 12.5463C0.662521 12.4506 0.577024 12.2764 0.605981 12.0995C0.987636 9.76787 2.82461 8 5.03319 8C7.2417 8 9.07862 9.76775 9.46036 12.0993C9.48932 12.2761 9.40386 12.4504 9.25231 12.546C8.94009 12.7431 8.52366 12.5171 8.45613 12.1541C8.10903 10.2884 6.6371 9 5.03319 9C3.42922 9 1.95721 10.2885 1.61017 12.1543C1.54266 12.5173 1.12634 12.7433 0.814121 12.5463Z"></path><path fill-rule="evenodd" clip-rule="evenodd" d="M5.03319 8C6.13776 8 7.03292 7.10457 7.03292 6C7.03292 4.89543 6.13749 4 5.03292 4C3.92835 4 3.03292 4.89543 3.03292 6C3.03292 7.10457 3.92862 8 5.03319 8ZM5.03319 9C6.69005 9 8.03292 7.65685 8.03292 6C8.03292 4.34315 6.68978 3 5.03292 3C3.37607 3 2.03292 4.34315 2.03292 6C2.03292 7.65685 3.37634 9 5.03319 9Z"></path><path d="M10.5237 7.97664C10.2066 7.92786 9.84746 8.14164 9.81481 8.4608C9.78067 8.79455 10.1176 9.06645 10.4504 9.02412C10.5758 9.00816 10.7026 9 10.8303 9C12.4342 9 13.9061 10.2884 14.2533 12.1541C14.3208 12.5171 14.7372 12.7431 15.0494 12.546C15.2009 12.4504 15.2864 12.2762 15.2575 12.0994C14.9855 10.4382 13.9749 9.06319 12.6174 8.40982C13.3534 7.86312 13.8302 6.98725 13.8302 6C13.8302 4.34315 12.4871 3 10.8302 3C10.2674 3 9.74083 3.15497 9.29077 3.42457C9.11511 3.5298 9.06395 3.75051 9.14523 3.93846C9.27357 4.23521 9.6799 4.33199 9.97185 4.19305C10.2319 4.06927 10.523 4 10.8302 4C11.9348 4 12.8302 4.89543 12.8302 6C12.8302 7.10457 11.9348 8 10.8303 8C10.726 8 10.6236 7.99202 10.5237 7.97664Z"></path></svg>