<svg width="16" height="16" viewBox="0 0 16 16" fill="none" xmlns="http://www.w3.org/2000/svg" class="UserSidebar_iconWhite__3IEgo"><path d="M5.5 11.5V12C5.5 13.3807 6.61929 14.5 8 14.5V14.5C9.38071 14.5 10.5 13.3807 10.5 12V11.5" stroke="currentColor" stroke-linecap="square"></path><path d="M2.47984 10.3804L2.02026 10.1834L2.47984 10.3804ZM13.5202 10.3804L13.9797 10.1834L13.5202 10.3804ZM12.7819 11H3.21811V12H12.7819V11ZM2.93941 10.5773L3.32121 9.68646L2.40207 9.29254L2.02026 10.1834L2.93941 10.5773ZM4 6.37947V6H3V6.37947H4ZM12 6V6.37947H13V6H12ZM12.6788 9.68646L13.0606 10.5773L13.9797 10.1834L13.5979 9.29254L12.6788 9.68646ZM12 6.37947C12 7.51639 12.2309 8.64147 12.6788 9.68646L13.5979 9.29254C13.2034 8.37202 13 7.38096 13 6.37947H12ZM3.32121 9.68646C3.76907 8.64147 4 7.51639 4 6.37947H3C3 7.38096 2.79658 8.37202 2.40207 9.29254L3.32121 9.68646ZM3.21811 11C3.00043 11 2.85366 10.7774 2.93941 10.5773L2.02026 10.1834C1.65171 11.0434 2.28251 12 3.21811 12V11ZM12.7819 12C13.7175 12 14.3483 11.0434 13.9797 10.1834L13.0606 10.5773C13.1463 10.7774 12.9996 11 12.7819 11V12ZM8 2C10.2091 2 12 3.79086 12 6H13C13 3.23858 10.7614 1 8 1V2ZM8 1C5.23858 1 3 3.23858 3 6H4C4 3.79086 5.79086 2 8 2V1Z" fill="currentColor"></path></svg>