<svg width="17" height="16" viewBox="0 0 17 16" fill="none" xmlns="http://www.w3.org/2000/svg" class="UserSidebar_notificationIcon__3US7D"><path opacity="0.6" fill-rule="evenodd" clip-rule="evenodd" d="M10.5351 1H3C1.89543 1 1 1.89543 1 3V13C1 14.1046 1.89543 15 3 15H13C14.1046 15 15 14.1046 15 13V6.87398C14.6804 6.95625 14.3453 7 14 7C12.9856 7 12.0593 6.62236 11.3542 6H7V2H10.126C10.2173 1.64523 10.3561 1.30951 10.5351 1ZM14 7L14 13C14 13.5523 13.5523 14 13 14H7V7H14ZM3 2H6V14H3C2.44772 14 2 13.5523 2 13V3C2 2.44772 2.44772 2 3 2Z" fill="white"></path><circle cx="14" cy="3" r="3" fill="#FD5B5D"></circle></svg>