<svg width="16" height="16" viewBox="0 0 16 16" fill="none" xmlns="http://www.w3.org/2000/svg"><path fill-rule="evenodd" clip-rule="evenodd" d="M3.98968 8.21795C3.62305 8.58411 3.34229 9.0271 3.16768 9.51495L1.56768 13.996C1.54332 14.0641 1.5384 14.1377 1.55348 14.2085C1.56856 14.2793 1.60304 14.3445 1.65307 14.3968C1.70309 14.4491 1.76668 14.4864 1.83673 14.5047C1.90677 14.5229 1.9805 14.5212 2.04968 14.5L5.90268 13.314C6.44842 13.1462 6.94485 12.8475 7.34868 12.444L13.9387 5.85395C14.1166 5.6762 14.2577 5.46513 14.354 5.2328C14.4503 5.00047 14.4999 4.75144 14.4999 4.49995C14.4999 4.24846 14.4503 3.99943 14.354 3.7671C14.2577 3.53478 14.1166 3.3237 13.9387 3.14595L12.8537 2.06095C12.6759 1.88304 12.4648 1.74191 12.2325 1.64561C12.0002 1.54932 11.7512 1.49976 11.4997 1.49976C11.2482 1.49976 10.9992 1.54932 10.7668 1.64561C10.5345 1.74191 10.3234 1.88304 10.1457 2.06095L3.98968 8.21795Z" stroke="white"></path><path d="M9.5 3.5L12.5 6.5" stroke="white" stroke-linecap="square"></path></svg>