<svg width="16" height="16" viewBox="0 0 16 16" fill="none" xmlns="http://www.w3.org/2000/svg"><path d="M14.5 8C14.5 11.5899 11.5899 14.5 8 14.5C4.41015 14.5 1.5 11.5899 1.5 8C1.5 4.41015 4.41015 1.5 8 1.5C11.5899 1.5 14.5 4.41015 14.5 8Z" stroke="white"></path><path fill-rule="evenodd" clip-rule="evenodd" d="M3.12598 11.5C4.21516 9.98592 5.9924 9 7.99991 9C10.0074 9 11.7847 9.98595 12.8739 11.5C12.6718 11.7809 12.446 12.0437 12.1995 12.2853C11.3086 10.91 9.76054 10 7.99991 10C6.2393 10 4.69123 10.91 3.80036 12.2853C3.55383 12.0436 3.32806 11.7809 3.12598 11.5Z" fill="white"></path><circle cx="8" cy="7" r="2.5" stroke="white"></circle></svg>