<svg width="17" height="16" viewBox="0 0 17 16" fill="none" xmlns="http://www.w3.org/2000/svg" class="UserSidebar_notificationIcon__3US7D"><path opacity="0.6" fill-rule="evenodd" clip-rule="evenodd" d="M15 6.87398V11.6856C15 12.6907 14.2568 13.5297 13.2774 13.6843C12.7209 13.7721 12.0945 13.8801 11.6085 13.9881C11.03 14.1167 10.2004 14.4686 9.48491 14.8082C9.13397 14.9748 8.82179 15.1329 8.59735 15.2494C8.48524 15.3076 8.39529 15.3552 8.33364 15.3882L8.26325 15.426L8.24547 15.4357L8.24038 15.4384C8.09119 15.5201 7.9095 15.5204 7.75962 15.4384L7.75453 15.4357L7.73675 15.426L7.66636 15.3882C7.60471 15.3552 7.51476 15.3076 7.40265 15.2494C7.17821 15.1329 6.86603 14.9748 6.51509 14.8082C5.79958 14.4686 4.97005 14.1167 4.39153 13.9881C3.90549 13.8801 3.27913 13.7721 2.72255 13.6843C1.74319 13.5297 1 12.6907 1 11.6856V3C1 2.17199 1.67052 1.5 2.49936 1.5H5C5.90029 1.5 6.75245 1.94237 7.33985 2.33397C7.60481 2.51062 7.83025 2.6867 8 2.82876C8.16975 2.6867 8.39519 2.51062 8.66015 2.33397C9.08171 2.05294 9.63962 1.74575 10.2538 1.59469C10.1199 1.95158 10.0355 2.33269 10.009 2.72965C9.73127 2.8479 9.46146 3.00162 9.21485 3.16603C8.95418 3.3398 8.73597 3.51431 8.58321 3.64525C8.55269 3.67141 8.52489 3.69574 8.5 3.71787V14.1765C8.66732 14.0925 8.85546 14.0001 9.05609 13.9049C9.77092 13.5655 10.6914 13.1675 11.3915 13.0119C11.9088 12.897 12.56 12.7851 13.1215 12.6965C13.6284 12.6165 14 12.185 14 11.6856V7C14.3453 7 14.6804 6.95625 15 6.87398ZM2.49936 2.5C2.22364 2.5 2 2.72344 2 3V11.6856C2 12.185 2.3716 12.6165 2.87845 12.6965C3.44003 12.7851 4.0912 12.897 4.60847 13.0119C5.30862 13.1675 6.22908 13.5655 6.94391 13.9049C7.14454 14.0001 7.33268 14.0925 7.5 14.1765V3.71787C7.47511 3.69574 7.44731 3.67141 7.41679 3.64525C7.26403 3.51431 7.04582 3.3398 6.78515 3.16603C6.24755 2.80763 5.59971 2.5 5 2.5H2.49936Z" fill="white"></path><circle cx="14" cy="3" r="3" fill="#FD5B5D"></circle></svg>