<svg width="149.80625px" height="336.8px" xmlns="http://www.w3.org/2000/svg" viewBox="175.096875 -93.4 149.80625 336.8" style="background: none;" preserveAspectRatio="xMidYMid"><defs><filter id="editing-vr"><feFlood flood-color="#f00" flood-opacity="0.7" result="c1"></feFlood><feFlood flood-color="#0000ff" flood-opacity="0.7" result="c3"></feFlood><feComposite operator="in" in="c1" in2="SourceAlpha" result="text-c1"></feComposite><feComposite operator="in" in="c3" in2="SourceAlpha" result="text-c3"></feComposite><feOffset in="text-c1" dx="4" dy="-1" result="text1"></feOffset><feOffset in="text-c3" dx="-4" dy="1" result="text3"></feOffset><feBlend in="SourceGraphic" in2="text1" mode="multiply" result="text4"></feBlend><feBlend in="text4" in2="text3" mode="multiply"></feBlend></filter></defs><g filter="url(#editing-vr)"><g transform="translate(200.3550181388855, 145.2699966430664)"><path d="M89.85-73.77L89.85-73.77L89.50-72.63L88.45-72.28L88.45-72.28Q77.00-69.14 68.52-62.67L68.52-62.67L68.52-62.67Q72.98-58.73 78.05-56.02L78.05-56.02L78.05-56.02Q83.12-53.32 89.15-51.74L89.15-51.74L90.20-51.39L90.72-50.26L90.72-50.26Q90.72-50.08 90.99-48.86L90.99-48.86L90.99-48.86Q91.25-47.63 91.25-45.62L91.25-45.62L91.25-45.62Q91.25-43.88 91.03-42.48L91.03-42.48L91.03-42.48Q90.81-41.08 90.37-39.77L90.37-39.77L90.37-39.77Q91.86-37.06 92.47-34.13L92.47-34.13L92.47-34.13Q93.08-31.20 93.08-29.19L93.08-29.19L93.08-29.19Q93.08-25.70 92.38-23.51L92.38-23.51L92.38-23.51Q91.69-21.33 91.51-21.15L91.51-21.15L90.90-20.19L89.67-20.02L89.67-20.02Q71.84-17.92 59.61-6.99L59.61-6.99L58.56-6.47L58.56-6.47Q54.19-5.59 50.47-4.59L50.47-4.59L50.47-4.59Q46.76-3.58 43.40-2.10L43.40-2.10L43.40-2.10Q40.03-0.61 36.88 1.49L36.88 1.49L36.88 1.49Q33.74 3.58 30.59 6.64L30.59 6.64L29.02 7.34L29.02 7.34Q28.84 7.34 27.62 7.21L27.62 7.21L27.62 7.21Q26.40 7.08 24.52 6.38L24.52 6.38L24.52 6.38Q22.64 5.68 20.41 4.11L20.41 4.11L20.41 4.11Q18.18 2.53 16.08-0.35L16.08-0.35L16.08-0.35Q12.94-1.14 10.88-2.49L10.88-2.49L10.88-2.49Q8.83-3.85 7.56-5.20L7.56-5.20L7.56-5.20Q6.29-6.56 5.81-7.56L5.81-7.56L5.81-7.56Q5.33-8.57 5.33-8.74L5.33-8.74L4.98-9.70L5.33-10.40L5.33-10.40Q7.34-15.30 8.30-20.32L8.30-20.32L8.30-20.32Q9.26-25.35 9.26-30.77L9.26-30.77L9.26-30.77Q9.26-34.44 8.87-38.15L8.87-38.15L8.87-38.15Q8.48-41.87 7.52-45.80L7.52-45.80L7.52-46.94L7.52-46.94Q8.57-51.22 9.22-55.37L9.22-55.37L9.22-55.37Q9.88-59.52 9.88-63.72L9.88-63.72L9.88-63.72Q9.88-68.44 9.09-72.89L9.09-72.89L9.09-72.89Q8.30-77.35 6.99-81.81L6.99-81.81L6.82-82.51L7.17-83.21L7.17-83.21Q10.93-92.82 10.93-102.35L10.93-102.35L10.93-102.35Q10.93-106.19 10.36-109.95L10.36-109.95L10.36-109.95Q9.79-113.71 8.57-117.64L8.57-117.64L8.22-118.69L8.92-119.57L8.92-119.57Q9.00-119.65 9.61-120.31L9.61-120.31L9.61-120.31Q10.23-120.96 11.45-121.88L11.45-121.88L11.45-121.88Q12.67-122.80 14.60-123.72L14.60-123.72L14.60-123.72Q16.52-124.64 19.14-125.16L19.14-125.16L19.14-125.16Q20.89-127.96 23.07-129.57L23.07-129.57L23.07-129.57Q25.26-131.19 27.23-131.98L27.23-131.98L27.23-131.98Q29.19-132.76 30.46-132.98L30.46-132.98L30.46-132.98Q31.73-133.20 31.64-133.20L31.64-133.20L32.60-133.20L33.30-132.68L33.30-132.68Q36.10-130.14 38.89-128.31L38.89-128.31L38.89-128.31Q41.69-126.47 44.71-125.12L44.71-125.12L44.71-125.12Q47.72-123.76 51.13-122.84L51.13-122.84L51.13-122.84Q54.54-121.93 58.56-121.14L58.56-121.14L58.56-121.14Q59.00-120.96 59.43-120.96L59.43-120.96L59.43-120.96Q59.87-120.96 60.31-120.96L60.31-120.96L61.01-120.96L61.79-120.44L61.79-120.44Q65.29-117.47 68.48-115.33L68.48-115.33L68.48-115.33Q71.67-113.19 75.08-111.74L75.08-111.74L75.08-111.74Q78.49-110.30 82.25-109.52L82.25-109.52L82.25-109.52Q86.00-108.73 90.55-108.47L90.55-108.47L91.69-108.47L92.38-107.42L92.38-107.42Q92.38-107.33 92.69-106.72L92.69-106.72L92.69-106.72Q93.00-106.11 93.35-104.97L93.35-104.97L93.35-104.97Q93.70-103.83 94.00-102.26L94.00-102.26L94.00-102.26Q94.31-100.69 94.31-98.76L94.31-98.76L94.31-98.76Q94.31-97.02 94.00-95.09L94.00-95.09L94.00-95.09Q93.70-93.17 92.91-90.90L92.91-90.90L92.91-90.90Q91.60-87.31 89.85-85.04L89.85-85.04L89.85-85.04Q90.29-83.38 90.51-81.94L90.51-81.94L90.51-81.94Q90.72-80.50 90.72-79.27L90.72-79.27L90.72-79.27Q90.72-76.83 90.29-75.38L90.29-75.38L90.29-75.38Q89.85-73.94 89.85-73.77ZM51.57-89.67L51.57-89.67L50.52-90.20L50.52-90.20Q47.11-92.12 44.23-93.78L44.23-93.78L44.23-93.78Q41.34-95.44 38.63-96.67L38.63-96.67L38.63-96.67Q38.63-93.43 39.16-90.24L39.16-90.24L39.16-90.24Q39.68-87.05 40.64-83.99L40.64-83.99L40.64-82.68L40.64-82.68Q40.21-81.11 39.86-79.62L39.86-79.62L39.86-79.62Q39.51-78.14 39.24-76.65L39.24-76.65L41.69-79.10L42.22-79.80L43.00-79.97L43.00-79.97Q48.07-81.20 52.62-83.16L52.62-83.16L52.62-83.16Q57.16-85.13 61.36-88.10L61.36-88.10L61.36-88.10Q56.90-89.15 51.57-89.67ZM40.29-44.40L40.29-44.40L40.29-44.40Q38.11-37.85 37.58-31.12L37.58-31.12L37.58-31.12Q38.81-31.81 39.99-32.51L39.99-32.51L39.99-32.51Q41.17-33.21 42.39-34.17L42.39-34.17L43.70-35.22L44.23-35.83L45.10-36.01L45.10-36.01Q47.90-36.18 50.74-36.67L50.74-36.67L50.74-36.67Q53.58-37.15 56.37-37.93L56.37-37.93L56.37-37.93Q50.61-41.17 44.23-43.35L44.23-43.35L43.18-43.88L41.69-45.27L41.69-45.27Q41.25-45.10 40.99-44.88L40.99-44.88L40.99-44.88Q40.73-44.66 40.29-44.40Z" fill="#444"></path></g></g><style>text {
  font-size: 64px;
  font-family: Arial Black;
  dominant-baseline: central;
  text-anchor: middle;
}</style></svg>