<svg width="352.63935546875px" height="132.8px" xmlns="http://www.w3.org/2000/svg" viewBox="73.680322265625 8.599999999999994 352.63935546875 132.8" style="background:#444" preserveAspectRatio="xMidYMid"><defs><filter id="editing-crystal" x="-100%" y="-100%" width="300%" height="300%"><feMorphology operator="dilate" radius="2" in="SourceGraphic" result="border"></feMorphology><feFlood flood-color="#fff" result="black"></feFlood><feMorphology operator="dilate" radius="2" in="SourceGraphic" result="erode"></feMorphology><feGaussianBlur in="erode" stdDeviation="4" result="blur"></feGaussianBlur><feOffset in="blur" dx="2" dy="2" result="offset"></feOffset><feComposite operator="atop" in="offset" in2="black" result="merge"></feComposite><feComposite operator="in" in="merge" in2="SourceGraphic" result="inner-shadow"></feComposite><feGaussianBlur in="SourceGraphic" stdDeviation="2.5" result="shadow1"></feGaussianBlur><feOffset in="shadow1" dx="0" dy="5" result="shadow"></feOffset><feSpecularLighting in="SourceGraphic" result="specular" surfaceScale="1.5" specularConstant="100" specularExponent="10" lighting-color="#ffffff"><fePointLight x="250" y="-300" z="-400"></fePointLight></feSpecularLighting><feGaussianBlur in="specular" stdDeviation="1" result="specular2"></feGaussianBlur><feComposite operator="in" in="specular2" in2="SourceAlpha" result="specular3"></feComposite><feMerge result="merge"><feMergeNode in="border"></feMergeNode><feMergeNode in="inner-shadow"></feMergeNode><feMergeNode in="specular3"></feMergeNode></feMerge><feComponentTransfer in="merge" result="final"><feFuncA type="linear" slope="0.9" intercept="0"></feFuncA></feComponentTransfer><feMerge><feMergeNode in="shadow"></feMergeNode><feMergeNode in="final"></feMergeNode></feMerge></filter></defs><g filter="url(#editing-crystal)"><g transform="translate(127.26328158378601, 100.13000106811523)"><path d="M32.13-26.38L32.13-26.38L32-25.97L31.63-25.84L31.63-25.84Q27.53-24.72 24.50-22.41L24.50-22.41L24.50-22.41Q26.09-21 27.91-20.03L27.91-20.03L27.91-20.03Q29.72-19.06 31.88-18.50L31.88-18.50L32.25-18.38L32.44-17.97L32.44-17.97Q32.44-17.91 32.53-17.47L32.53-17.47L32.53-17.47Q32.63-17.03 32.63-16.31L32.63-16.31L32.63-16.31Q32.63-15.69 32.55-15.19L32.55-15.19L32.55-15.19Q32.47-14.69 32.31-14.22L32.31-14.22L32.31-14.22Q32.84-13.25 33.06-12.20L33.06-12.20L33.06-12.20Q33.28-11.16 33.28-10.44L33.28-10.44L33.28-10.44Q33.28-9.19 33.03-8.41L33.03-8.41L33.03-8.41Q32.78-7.63 32.72-7.56L32.72-7.56L32.50-7.22L32.06-7.16L32.06-7.16Q25.69-6.41 21.31-2.50L21.31-2.50L20.94-2.31L20.94-2.31Q19.38-2 18.05-1.64L18.05-1.64L18.05-1.64Q16.72-1.28 15.52-0.75L15.52-0.75L15.52-0.75Q14.31-0.22 13.19 0.53L13.19 0.53L13.19 0.53Q12.06 1.28 10.94 2.38L10.94 2.38L10.38 2.63L10.38 2.63Q10.31 2.63 9.88 2.58L9.88 2.58L9.88 2.58Q9.44 2.53 8.77 2.28L8.77 2.28L8.77 2.28Q8.09 2.03 7.30 1.47L7.30 1.47L7.30 1.47Q6.50 0.91 5.75-0.13L5.75-0.13L5.75-0.13Q4.63-0.41 3.89-0.89L3.89-0.89L3.89-0.89Q3.16-1.38 2.70-1.86L2.70-1.86L2.70-1.86Q2.25-2.34 2.08-2.70L2.08-2.70L2.08-2.70Q1.91-3.06 1.91-3.13L1.91-3.13L1.78-3.47L1.91-3.72L1.91-3.72Q2.63-5.47 2.97-7.27L2.97-7.27L2.97-7.27Q3.31-9.06 3.31-11L3.31-11L3.31-11Q3.31-12.31 3.17-13.64L3.17-13.64L3.17-13.64Q3.03-14.97 2.69-16.38L2.69-16.38L2.69-16.78L2.69-16.78Q3.06-18.31 3.30-19.80L3.30-19.80L3.30-19.80Q3.53-21.28 3.53-22.78L3.53-22.78L3.53-22.78Q3.53-24.47 3.25-26.06L3.25-26.06L3.25-26.06Q2.97-27.66 2.50-29.25L2.50-29.25L2.44-29.50L2.56-29.75L2.56-29.75Q3.91-33.19 3.91-36.59L3.91-36.59L3.91-36.59Q3.91-37.97 3.70-39.31L3.70-39.31L3.70-39.31Q3.50-40.66 3.06-42.06L3.06-42.06L2.94-42.44L3.19-42.75L3.19-42.75Q3.22-42.78 3.44-43.02L3.44-43.02L3.44-43.02Q3.66-43.25 4.09-43.58L4.09-43.58L4.09-43.58Q4.53-43.91 5.22-44.23L5.22-44.23L5.22-44.23Q5.91-44.56 6.84-44.75L6.84-44.75L6.84-44.75Q7.47-45.75 8.25-46.33L8.25-46.33L8.25-46.33Q9.03-46.91 9.73-47.19L9.73-47.19L9.73-47.19Q10.44-47.47 10.89-47.55L10.89-47.55L10.89-47.55Q11.34-47.63 11.31-47.63L11.31-47.63L11.66-47.63L11.91-47.44L11.91-47.44Q12.91-46.53 13.91-45.88L13.91-45.88L13.91-45.88Q14.91-45.22 15.98-44.73L15.98-44.73L15.98-44.73Q17.06-44.25 18.28-43.92L18.28-43.92L18.28-43.92Q19.50-43.59 20.94-43.31L20.94-43.31L20.94-43.31Q21.09-43.25 21.25-43.25L21.25-43.25L21.25-43.25Q21.41-43.25 21.56-43.25L21.56-43.25L21.81-43.25L22.09-43.06L22.09-43.06Q23.34-42 24.48-41.23L24.48-41.23L24.48-41.23Q25.63-40.47 26.84-39.95L26.84-39.95L26.84-39.95Q28.06-39.44 29.41-39.16L29.41-39.16L29.41-39.16Q30.75-38.88 32.38-38.78L32.38-38.78L32.78-38.78L33.03-38.41L33.03-38.41Q33.03-38.38 33.14-38.16L33.14-38.16L33.14-38.16Q33.25-37.94 33.38-37.53L33.38-37.53L33.38-37.53Q33.50-37.13 33.61-36.56L33.61-36.56L33.61-36.56Q33.72-36 33.72-35.31L33.72-35.31L33.72-35.31Q33.72-34.69 33.61-34L33.61-34L33.61-34Q33.50-33.31 33.22-32.50L33.22-32.50L33.22-32.50Q32.75-31.22 32.13-30.41L32.13-30.41L32.13-30.41Q32.28-29.81 32.36-29.30L32.36-29.30L32.36-29.30Q32.44-28.78 32.44-28.34L32.44-28.34L32.44-28.34Q32.44-27.47 32.28-26.95L32.28-26.95L32.28-26.95Q32.13-26.44 32.13-26.38ZM18.44-32.06L18.44-32.06L18.06-32.25L18.06-32.25Q16.84-32.94 15.81-33.53L15.81-33.53L15.81-33.53Q14.78-34.13 13.81-34.56L13.81-34.56L13.81-34.56Q13.81-33.41 14-32.27L14-32.27L14-32.27Q14.19-31.13 14.53-30.03L14.53-30.03L14.53-29.56L14.53-29.56Q14.38-29 14.25-28.47L14.25-28.47L14.25-28.47Q14.13-27.94 14.03-27.41L14.03-27.41L14.91-28.28L15.09-28.53L15.38-28.59L15.38-28.59Q17.19-29.03 18.81-29.73L18.81-29.73L18.81-29.73Q20.44-30.44 21.94-31.50L21.94-31.50L21.94-31.50Q20.34-31.88 18.44-32.06ZM14.41-15.88L14.41-15.88L14.41-15.88Q13.63-13.53 13.44-11.13L13.44-11.13L13.44-11.13Q13.88-11.38 14.30-11.63L14.30-11.63L14.30-11.63Q14.72-11.88 15.16-12.22L15.16-12.22L15.63-12.59L15.81-12.81L16.13-12.88L16.13-12.88Q17.13-12.94 18.14-13.11L18.14-13.11L18.14-13.11Q19.16-13.28 20.16-13.56L20.16-13.56L20.16-13.56Q18.09-14.72 15.81-15.50L15.81-15.50L15.44-15.69L14.91-16.19L14.91-16.19Q14.75-16.13 14.66-16.05L14.66-16.05L14.66-16.05Q14.56-15.97 14.41-15.88ZM66.63-25.28L66.63-25.28L66.56-24.91L66.19-24.72L66.19-24.72Q64.16-23.84 62.48-22.77L62.48-22.77L62.48-22.77Q60.81-21.69 59.47-20.28L59.47-20.28L59.47-20.28Q60-18.84 60.84-17.70L60.84-17.70L60.84-17.70Q61.69-16.56 63.06-15.28L63.06-15.28L63.25-14.97L63.25-14.97Q63.78-12.28 65.02-10.09L65.02-10.09L65.02-10.09Q66.25-7.91 68.38-6.09L68.38-6.09L68.63-5.94L68.63-5.63L68.63-5.63Q68.63-5.56 68.58-5.03L68.58-5.03L68.58-5.03Q68.53-4.50 68.20-3.72L68.20-3.72L68.20-3.72Q67.88-2.94 67.13-2.03L67.13-2.03L67.13-2.03Q66.38-1.13 64.97-0.31L64.97-0.31L64.97-0.31Q63.88 0.31 62.92 0.55L62.92 0.55L62.92 0.55Q61.97 0.78 61.25 0.78L61.25 0.78L61.25 0.78Q60.59 0.78 60.09 0.66L60.09 0.66L60.09 0.66Q59.59 0.53 59.25 0.38L59.25 0.38L59.25 0.38Q58.91 0.22 58.72 0.09L58.72 0.09L58.72 0.09Q58.53-0.03 58.50-0.06L58.50-0.06L58.31-0.19L58.25-0.50L58.25-0.50Q58.09-1.72 57.77-2.78L57.77-2.78L57.77-2.78Q57.44-3.84 56.94-4.84L56.94-4.84L56.94-4.84Q56.44-5.84 55.77-6.81L55.77-6.81L55.77-6.81Q55.09-7.78 54.28-8.78L54.28-8.78L54.28-8.78Q53.97-9.09 53.84-9.16L53.84-9.16L53.66-9.34L53.66-9.59L53.66-9.59Q53.41-11.06 53.08-12.20L53.08-12.20L53.08-12.20Q52.75-13.34 52.19-14.34L52.19-14.34L52.19-14.34Q50.88-13.38 49.67-12.19L49.67-12.19L49.67-12.19Q48.47-11 47.50-9.72L47.50-9.72L47.50-9.72Q47.44-9.47 47.47-9.25L47.47-9.25L47.47-9.25Q47.50-9.03 47.50-8.78L47.50-8.78L47.50-8.78Q47.50-7.13 47.75-5.55L47.75-5.55L47.75-5.55Q48-3.97 48.59-2.38L48.59-2.38L48.72-2.13L48.59-1.78L48.59-1.78Q48.56-1.72 48.25-1.23L48.25-1.23L48.25-1.23Q47.94-0.75 47.22-0.19L47.22-0.19L47.22-0.19Q46.50 0.38 45.27 0.83L45.27 0.83L45.27 0.83Q44.03 1.28 42.19 1.28L42.19 1.28L42.19 1.28Q40.34 1.28 39.14 0.80L39.14 0.80L39.14 0.80Q37.94 0.31 37.23-0.30L37.23-0.30L37.23-0.30Q36.53-0.91 36.25-1.41L36.25-1.41L36.25-1.41Q35.97-1.91 35.97-1.97L35.97-1.97L35.84-2.31L35.97-2.56L35.97-2.56Q36.69-4.31 37.03-6.11L37.03-6.11L37.03-6.11Q37.38-7.91 37.38-9.84L37.38-9.84L37.38-9.84Q37.38-11.16 37.23-12.48L37.23-12.48L37.23-12.48Q37.09-13.81 36.75-15.22L36.75-15.22L36.75-15.63L36.75-15.63Q37.13-17.16 37.36-18.67L37.36-18.67L37.36-18.67Q37.59-20.19 37.59-21.63L37.59-21.63L37.59-21.63Q37.59-23.31 37.31-24.91L37.31-24.91L37.31-24.91Q37.03-26.50 36.56-28.09L36.56-28.09L36.50-28.34L36.63-28.59L36.63-28.59Q37.97-32.03 37.97-35.47L37.97-35.47L37.97-35.47Q37.97-36.88 37.77-38.22L37.77-38.22L37.77-38.22Q37.56-39.56 37.13-40.97L37.13-40.97L37-41.34L37.25-41.66L37.25-41.66Q37.28-41.69 37.50-41.92L37.50-41.92L37.50-41.92Q37.72-42.16 38.16-42.48L38.16-42.48L38.16-42.48Q38.59-42.81 39.28-43.14L39.28-43.14L39.28-43.14Q39.97-43.47 40.91-43.66L40.91-43.66L40.91-43.66Q41.50-44.59 42.25-45.14L42.25-45.14L42.25-45.14Q43-45.69 43.67-45.97L43.67-45.97L43.67-45.97Q44.34-46.25 44.83-46.34L44.83-46.34L44.83-46.34Q45.31-46.44 45.38-46.47L45.38-46.47L45.72-46.47L45.97-46.28L45.97-46.28Q46.88-45.47 47.97-44.72L47.97-44.72L47.97-44.72Q49.06-43.97 50.28-43.41L50.28-43.41L50.28-43.41Q51.50-42.84 52.84-42.52L52.84-42.52L52.84-42.52Q54.19-42.19 55.63-42.19L55.63-42.19L56.16-41.97L56.16-41.97Q57.41-40.88 58.55-40.11L58.55-40.11L58.55-40.11Q59.69-39.34 60.91-38.84L60.91-38.84L60.91-38.84Q62.13-38.34 63.47-38.06L63.47-38.06L63.47-38.06Q64.81-37.78 66.44-37.69L66.44-37.69L66.84-37.63L67.09-37.31L67.09-37.31Q67.09-37.25 67.20-37.03L67.20-37.03L67.20-37.03Q67.31-36.81 67.44-36.42L67.44-36.42L67.44-36.42Q67.56-36.03 67.67-35.48L67.67-35.48L67.67-35.48Q67.78-34.94 67.78-34.25L67.78-34.25L67.78-34.25Q67.78-33.63 67.67-32.91L67.67-32.91L67.67-32.91Q67.56-32.19 67.28-31.38L67.28-31.38L67.28-31.38Q66.84-30.09 66.19-29.25L66.19-29.25L66.19-29.25Q66.53-28.44 66.64-27.73L66.64-27.73L66.64-27.73Q66.75-27.03 66.75-26.50L66.75-26.50L66.75-26.50Q66.75-25.97 66.69-25.66L66.69-25.66L66.69-25.66Q66.63-25.34 66.63-25.28ZM52.50-30.97L52.50-30.97L52.09-31.09L52.09-31.09Q50.91-31.78 49.88-32.39L49.88-32.39L49.88-32.39Q48.84-33 47.88-33.47L47.88-33.47L47.88-33.47Q47.88-32.31 48.06-31.17L48.06-31.17L48.06-31.17Q48.25-30.03 48.59-28.88L48.59-28.88L48.59-28.41L48.59-28.41Q47.81-25.78 47.63-23.28L47.63-23.28L47.63-23.28Q48.13-23.78 48.55-24.28L48.55-24.28L48.55-24.28Q48.97-24.78 49.22-25.22L49.22-25.22L49.69-25.59L49.69-25.59Q51.75-26.38 53.55-27.48L53.55-27.48L53.55-27.48Q55.34-28.59 56.84-30.16L56.84-30.16L56.84-30.16Q54.91-30.78 52.50-30.97ZM106.28-5.38L106.41-5.13L106.28-4.81L106.28-4.81Q106.28-4.78 105.98-4.19L105.98-4.19L105.98-4.19Q105.69-3.59 104.89-2.89L104.89-2.89L104.89-2.89Q104.09-2.19 102.70-1.61L102.70-1.61L102.70-1.61Q101.31-1.03 99.16-1.03L99.16-1.03L99.16-1.03Q97.75-1.03 96.78-1.36L96.78-1.36L96.78-1.36Q95.81-1.69 95.13-2.19L95.13-2.19L95.13-2.19Q93.69-1.97 92.30-1.58L92.30-1.58L92.30-1.58Q90.91-1.19 89.56-0.56L89.56-0.56L89.38-0.44L89.19-0.50L89.19-0.50Q88.41-0.50 87.70-0.56L87.70-0.56L87.70-0.56Q87-0.63 86.25-0.63L86.25-0.63L86.25-0.63Q83.72-0.63 81.05-0.09L81.05-0.09L81.05-0.09Q78.38 0.44 76.25 1.53L76.25 1.53L75.94 1.66L75.69 1.59L75.69 1.59Q75.78 1.63 75.22 1.41L75.22 1.41L75.22 1.41Q74.66 1.19 73.91 0.61L73.91 0.61L73.91 0.61Q73.16 0.03 72.45-0.98L72.45-0.98L72.45-0.98Q71.75-2 71.59-3.59L71.59-3.59L71.59-3.59Q70.75-4.06 70.20-4.61L70.20-4.61L70.20-4.61Q69.66-5.16 69.33-5.63L69.33-5.63L69.33-5.63Q69-6.09 68.88-6.42L68.88-6.42L68.88-6.42Q68.75-6.75 68.75-6.78L68.75-6.78L68.69-7.09L68.81-7.38L68.81-7.38Q69.41-8.44 69.84-9.38L69.84-9.38L69.84-9.38Q70.28-10.31 70.56-11.20L70.56-11.20L70.56-11.20Q70.84-12.09 70.98-13.02L70.98-13.02L70.98-13.02Q71.13-13.94 71.13-15.03L71.13-15.03L71.13-15.03Q71.13-16.31 70.94-17.91L70.94-17.91L71-18.31L71-18.31Q71.81-20.28 72.20-21.97L72.20-21.97L72.20-21.97Q72.59-23.66 72.59-25.34L72.59-25.34L72.59-25.34Q72.59-26.31 72.47-27.33L72.47-27.33L72.47-27.33Q72.34-28.34 72.16-29.44L72.16-29.44L72.09-29.75L72.22-29.94L72.22-29.94Q72.94-31.34 73.41-32.52L73.41-32.52L73.41-32.52Q73.88-33.69 74.13-34.88L74.13-34.88L74.13-34.88Q73.66-35.50 73.33-36.55L73.33-36.55L73.33-36.55Q73-37.59 73-39.09L73-39.09L73-39.09Q73-41.09 73.52-42.36L73.52-42.36L73.52-42.36Q74.03-43.63 74.67-44.34L74.67-44.34L74.67-44.34Q75.31-45.06 75.84-45.31L75.84-45.31L75.84-45.31Q76.38-45.56 76.44-45.56L76.44-45.56L76.75-45.69L77.03-45.56L77.03-45.56Q78.66-44.75 80.31-44.39L80.31-44.39L80.31-44.39Q81.97-44.03 83.81-44.03L83.81-44.03L83.81-44.03Q84.56-44.03 85.56-44.05L85.56-44.05L85.56-44.05Q86.56-44.06 87.38-44.34L87.38-44.34L87.66-44.41L87.91-44.28L87.91-44.28Q89.59-43.50 91.03-43.09L91.03-43.09L91.03-43.09Q92.47-42.69 93.91-42.63L93.91-42.63L93.91-42.63Q94.69-42.97 95.66-43.25L95.66-43.25L95.66-43.25Q96.63-43.53 97.88-43.53L97.88-43.53L97.88-43.53Q99.13-43.53 100.09-43.23L100.09-43.23L100.09-43.23Q101.06-42.94 101.73-42.56L101.73-42.56L101.73-42.56Q102.41-42.19 102.77-41.88L102.77-41.88L102.77-41.88Q103.13-41.56 103.19-41.53L103.19-41.53L103.50-41.22L103.38-40.84L103.38-40.84Q103.03-39.47 102.86-38.23L102.86-38.23L102.86-38.23Q102.69-37 102.69-35.84L102.69-35.84L102.69-35.84Q102.69-34.28 103.02-32.83L103.02-32.83L103.02-32.83Q103.34-31.38 103.97-29.81L103.97-29.81L104.09-29.63L104.03-29.38L104.03-29.38Q103.84-28.19 103.72-27.11L103.72-27.11L103.72-27.11Q103.59-26.03 103.59-24.97L103.59-24.97L103.59-24.97Q103.59-22.94 104.02-21.08L104.02-21.08L104.02-21.08Q104.44-19.22 105.31-17.34L105.31-17.34L105.44-17.16L105.31-16.84L105.31-16.84Q104.97-15.47 104.78-14.30L104.78-14.30L104.78-14.30Q104.59-13.13 104.59-12.03L104.59-12.03L104.59-12.03Q104.59-10.38 105-8.80L105-8.80L105-8.80Q105.41-7.22 106.28-5.38L106.28-5.38ZM84.19-28.81L84.19-28.53L84.13-28.34L84.13-28.34Q83.22-26.22 82.81-24.48L82.81-24.48L82.81-24.48Q82.41-22.75 82.41-21.06L82.41-21.06L82.41-21.06Q82.41-20.06 82.53-19.06L82.53-19.06L82.53-19.06Q82.66-18.06 82.91-16.97L82.91-16.97L82.97-16.72L82.84-16.44L82.84-16.44Q81.94-14.63 81.45-13.23L81.45-13.23L81.45-13.23Q80.97-11.84 80.88-10.38L80.88-10.38L80.88-10.38Q81.63-10.47 82.50-10.59L82.50-10.59L82.50-10.59Q83.38-10.72 84.20-10.89L84.20-10.89L84.20-10.89Q85.03-11.06 85.77-11.31L85.77-11.31L85.77-11.31Q86.50-11.56 87-11.91L87-11.91L87.25-12.03L87.50-11.97L87.50-11.97Q88.59-11.72 89.64-11.63L89.64-11.63L89.64-11.63Q90.69-11.53 91.69-11.53L91.69-11.53L91.69-11.53Q93.06-11.53 94.44-11.72L94.44-11.72L94.44-11.72Q94.28-12.63 94.05-13.61L94.05-13.61L94.05-13.61Q93.81-14.59 93.47-15.69L93.47-15.69L93.41-16.06L93.41-16.06Q93.78-18.16 93.78-20.16L93.78-20.16L93.78-20.16Q93.78-22.19 93.36-24.05L93.36-24.05L93.36-24.05Q92.94-25.91 92.13-27.84L92.13-27.84L92-28.09L92.06-28.41L92.06-28.41Q92.41-29.63 92.63-30.78L92.63-30.78L92.63-30.78Q92.84-31.94 92.91-33.09L92.91-33.09L92.91-33.09Q92.47-33.16 92.05-33.19L92.05-33.19L92.05-33.19Q91.63-33.22 91.22-33.22L91.22-33.22L91.22-33.22Q90.34-33.22 89.47-33.09L89.47-33.09L89.47-33.09Q88.59-32.97 87.59-32.72L87.59-32.72L87.13-32.78L87.13-32.78Q86.22-32.94 85.47-33.14L85.47-33.14L85.47-33.14Q84.72-33.34 83.94-33.53L83.94-33.53L83.94-33.53Q83.88-33.06 83.88-32.63L83.88-32.63L83.88-32.63Q83.88-32.19 83.88-31.75L83.88-31.75L83.88-31.75Q83.88-31.06 83.95-30.34L83.95-30.34L83.95-30.34Q84.03-29.63 84.19-28.81L84.19-28.81ZM123.41-28.81L123.41-28.53L123.34-28.34L123.34-28.34Q122.44-26.22 122.03-24.48L122.03-24.48L122.03-24.48Q121.63-22.75 121.63-21.06L121.63-21.06L121.63-21.06Q121.63-20.06 121.75-19.06L121.75-19.06L121.75-19.06Q121.88-18.06 122.13-16.97L122.13-16.97L122.19-16.72L122.06-16.44L122.06-16.44Q121.16-14.66 120.67-13.27L120.67-13.27L120.67-13.27Q120.19-11.88 120.09-10.38L120.09-10.38L120.09-10.38Q120.72-10.47 121.22-10.59L121.22-10.59L121.22-10.59Q121.72-10.72 122.20-10.89L122.20-10.89L122.20-10.89Q122.69-11.06 123.20-11.25L123.20-11.25L123.20-11.25Q123.72-11.44 124.38-11.66L124.38-11.66L124.38-11.66Q124.53-11.72 124.66-11.77L124.66-11.77L124.66-11.77Q124.78-11.81 124.94-11.91L124.94-11.91L125.19-12.03L125.47-11.97L125.47-11.97Q126.53-11.72 127.48-11.63L127.48-11.63L127.48-11.63Q128.44-11.53 129.28-11.53L129.28-11.53L129.28-11.53Q131.06-11.53 132.75-11.97L132.75-11.97L132.75-11.97Q134.44-12.41 136.47-13.38L136.47-13.38L136.84-13.56L137.16-13.38L137.16-13.38Q137.19-13.34 137.59-13.06L137.59-13.06L137.59-13.06Q138-12.78 138.52-12.17L138.52-12.17L138.52-12.17Q139.03-11.56 139.53-10.61L139.53-10.61L139.53-10.61Q140.03-9.66 140.25-8.25L140.25-8.25L140.25-8.25Q140.31-7.91 140.31-7.59L140.31-7.59L140.31-7.59Q140.31-7.28 140.31-6.97L140.31-6.97L140.31-6.97Q140.31-5.88 140.06-5L140.06-5L140.06-5Q139.81-4.13 139.50-3.52L139.50-3.52L139.50-3.52Q139.19-2.91 138.92-2.56L138.92-2.56L138.92-2.56Q138.66-2.22 138.63-2.19L138.63-2.19L138.31-1.84L137.94-1.97L137.94-1.97Q136.97-2.13 136.09-2.22L136.09-2.22L136.09-2.22Q135.22-2.31 134.41-2.31L134.41-2.31L134.41-2.31Q132.56-2.31 130.98-1.88L130.98-1.88L130.98-1.88Q129.41-1.44 127.56-0.56L127.56-0.56L127.31-0.44L127.13-0.50L127.13-0.50Q126.41-0.50 125.72-0.56L125.72-0.56L125.72-0.56Q125.03-0.63 124.38-0.63L124.38-0.63L124.38-0.63Q122.03-0.63 119.81-0.09L119.81-0.09L119.81-0.09Q117.59 0.44 115.47 1.53L115.47 1.53L115.16 1.66L114.91 1.59L114.91 1.59Q115 1.63 114.44 1.41L114.44 1.41L114.44 1.41Q113.88 1.19 113.13 0.61L113.13 0.61L113.13 0.61Q112.38 0.03 111.67-0.98L111.67-0.98L111.67-0.98Q110.97-2 110.81-3.59L110.81-3.59L110.81-3.59Q109.97-4.06 109.42-4.61L109.42-4.61L109.42-4.61Q108.88-5.16 108.55-5.63L108.55-5.63L108.55-5.63Q108.22-6.09 108.09-6.42L108.09-6.42L108.09-6.42Q107.97-6.75 107.97-6.78L107.97-6.78L107.91-7.09L108.03-7.38L108.03-7.38Q108.63-8.44 109.06-9.38L109.06-9.38L109.06-9.38Q109.50-10.31 109.78-11.20L109.78-11.20L109.78-11.20Q110.06-12.09 110.20-13.02L110.20-13.02L110.20-13.02Q110.34-13.94 110.34-15.03L110.34-15.03L110.34-15.03Q110.34-16.31 110.16-17.91L110.16-17.91L110.22-18.31L110.22-18.31Q111.03-20.28 111.42-21.97L111.42-21.97L111.42-21.97Q111.81-23.66 111.81-25.34L111.81-25.34L111.81-25.34Q111.81-26.31 111.69-27.33L111.69-27.33L111.69-27.33Q111.56-28.34 111.38-29.44L111.38-29.44L111.31-29.75L111.44-29.94L111.44-29.94Q112.16-31.34 112.63-32.52L112.63-32.52L112.63-32.52Q113.09-33.69 113.34-34.88L113.34-34.88L113.34-34.88Q112.88-35.50 112.55-36.55L112.55-36.55L112.55-36.55Q112.22-37.59 112.22-39.09L112.22-39.09L112.22-39.09Q112.22-41.09 112.73-42.36L112.73-42.36L112.73-42.36Q113.25-43.63 113.89-44.34L113.89-44.34L113.89-44.34Q114.53-45.06 115.06-45.31L115.06-45.31L115.06-45.31Q115.59-45.56 115.66-45.56L115.66-45.56L115.97-45.69L116.25-45.56L116.25-45.56Q117.88-44.75 119.53-44.39L119.53-44.39L119.53-44.39Q121.19-44.03 123.03-44.03L123.03-44.03L123.03-44.03Q123.78-44.03 124.78-44.05L124.78-44.05L124.78-44.05Q125.78-44.06 126.59-44.34L126.59-44.34L126.88-44.41L127.13-44.28L127.13-44.28Q128.97-43.47 130.48-43.05L130.48-43.05L130.48-43.05Q132-42.63 133.59-42.63L133.59-42.63L133.59-42.63Q134.56-42.63 135.55-42.77L135.55-42.77L135.55-42.77Q136.53-42.91 137.63-43.19L137.63-43.19L138-43.25L138.25-43L138.25-43Q138.28-42.97 138.59-42.66L138.59-42.66L138.59-42.66Q138.91-42.34 139.23-41.72L139.23-41.72L139.23-41.72Q139.56-41.09 139.84-40.14L139.84-40.14L139.84-40.14Q140.13-39.19 140.13-37.88L140.13-37.88L140.13-37.38L140.13-37.38Q140.03-35.97 139.61-34.92L139.61-34.92L139.61-34.92Q139.19-33.88 138.72-33.20L138.72-33.20L138.72-33.20Q138.25-32.53 137.86-32.19L137.86-32.19L137.86-32.19Q137.47-31.84 137.44-31.81L137.44-31.81L137.03-31.56L136.66-31.69L136.66-31.69Q134.81-32.47 133.36-32.84L133.36-32.84L133.36-32.84Q131.91-33.22 130.44-33.22L130.44-33.22L130.44-33.22Q129.56-33.22 128.69-33.09L128.69-33.09L128.69-33.09Q127.81-32.97 126.81-32.72L126.81-32.72L126.34-32.78L126.34-32.78Q125.44-32.94 124.69-33.14L124.69-33.14L124.69-33.14Q123.94-33.34 123.16-33.53L123.16-33.53L123.16-33.53Q123.09-33.06 123.09-32.63L123.09-32.63L123.09-32.63Q123.09-32.19 123.09-31.75L123.09-31.75L123.09-31.75Q123.09-31.06 123.17-30.34L123.17-30.34L123.17-30.34Q123.25-29.63 123.41-28.81L123.41-28.81ZM178.47-5.38L178.59-5.13L178.47-4.81L178.47-4.81Q178.47-4.78 178.17-4.19L178.17-4.19L178.17-4.19Q177.88-3.59 177.08-2.89L177.08-2.89L177.08-2.89Q176.28-2.19 174.89-1.61L174.89-1.61L174.89-1.61Q173.50-1.03 171.34-1.03L171.34-1.03L171.34-1.03Q169.94-1.03 168.97-1.36L168.97-1.36L168.97-1.36Q168-1.69 167.31-2.19L167.31-2.19L167.31-2.19Q165.88-1.97 164.48-1.58L164.48-1.58L164.48-1.58Q163.09-1.19 161.75-0.56L161.75-0.56L161.56-0.44L161.38-0.50L161.38-0.50Q160.59-0.50 159.89-0.56L159.89-0.56L159.89-0.56Q159.19-0.63 158.44-0.63L158.44-0.63L158.44-0.63Q155.91-0.63 153.23-0.09L153.23-0.09L153.23-0.09Q150.56 0.44 148.44 1.53L148.44 1.53L148.13 1.66L147.88 1.59L147.88 1.59Q147.97 1.63 147.41 1.41L147.41 1.41L147.41 1.41Q146.84 1.19 146.09 0.61L146.09 0.61L146.09 0.61Q145.34 0.03 144.64-0.98L144.64-0.98L144.64-0.98Q143.94-2 143.78-3.59L143.78-3.59L143.78-3.59Q142.94-4.06 142.39-4.61L142.39-4.61L142.39-4.61Q141.84-5.16 141.52-5.63L141.52-5.63L141.52-5.63Q141.19-6.09 141.06-6.42L141.06-6.42L141.06-6.42Q140.94-6.75 140.94-6.78L140.94-6.78L140.88-7.09L141-7.38L141-7.38Q141.59-8.44 142.03-9.38L142.03-9.38L142.03-9.38Q142.47-10.31 142.75-11.20L142.75-11.20L142.75-11.20Q143.03-12.09 143.17-13.02L143.17-13.02L143.17-13.02Q143.31-13.94 143.31-15.03L143.31-15.03L143.31-15.03Q143.31-16.31 143.13-17.91L143.13-17.91L143.19-18.31L143.19-18.31Q144-20.28 144.39-21.97L144.39-21.97L144.39-21.97Q144.78-23.66 144.78-25.34L144.78-25.34L144.78-25.34Q144.78-26.31 144.66-27.33L144.66-27.33L144.66-27.33Q144.53-28.34 144.34-29.44L144.34-29.44L144.28-29.75L144.41-29.94L144.41-29.94Q145.13-31.34 145.59-32.52L145.59-32.52L145.59-32.52Q146.06-33.69 146.31-34.88L146.31-34.88L146.31-34.88Q145.84-35.50 145.52-36.55L145.52-36.55L145.52-36.55Q145.19-37.59 145.19-39.09L145.19-39.09L145.19-39.09Q145.19-41.09 145.70-42.36L145.70-42.36L145.70-42.36Q146.22-43.63 146.86-44.34L146.86-44.34L146.86-44.34Q147.50-45.06 148.03-45.31L148.03-45.31L148.03-45.31Q148.56-45.56 148.63-45.56L148.63-45.56L148.94-45.69L149.22-45.56L149.22-45.56Q150.84-44.75 152.50-44.39L152.50-44.39L152.50-44.39Q154.16-44.03 156-44.03L156-44.03L156-44.03Q156.75-44.03 157.75-44.05L157.75-44.05L157.75-44.05Q158.75-44.06 159.56-44.34L159.56-44.34L159.84-44.41L160.09-44.28L160.09-44.28Q161.78-43.50 163.22-43.09L163.22-43.09L163.22-43.09Q164.66-42.69 166.09-42.63L166.09-42.63L166.09-42.63Q166.88-42.97 167.84-43.25L167.84-43.25L167.84-43.25Q168.81-43.53 170.06-43.53L170.06-43.53L170.06-43.53Q171.31-43.53 172.28-43.23L172.28-43.23L172.28-43.23Q173.25-42.94 173.92-42.56L173.92-42.56L173.92-42.56Q174.59-42.19 174.95-41.88L174.95-41.88L174.95-41.88Q175.31-41.56 175.38-41.53L175.38-41.53L175.69-41.22L175.56-40.84L175.56-40.84Q175.22-39.47 175.05-38.23L175.05-38.23L175.05-38.23Q174.88-37 174.88-35.84L174.88-35.84L174.88-35.84Q174.88-34.28 175.20-32.83L175.20-32.83L175.20-32.83Q175.53-31.38 176.16-29.81L176.16-29.81L176.28-29.63L176.22-29.38L176.22-29.38Q176.03-28.19 175.91-27.11L175.91-27.11L175.91-27.11Q175.78-26.03 175.78-24.97L175.78-24.97L175.78-24.97Q175.78-22.94 176.20-21.08L176.20-21.08L176.20-21.08Q176.63-19.22 177.50-17.34L177.50-17.34L177.63-17.16L177.50-16.84L177.50-16.84Q177.16-15.47 176.97-14.30L176.97-14.30L176.97-14.30Q176.78-13.13 176.78-12.03L176.78-12.03L176.78-12.03Q176.78-10.38 177.19-8.80L177.19-8.80L177.19-8.80Q177.59-7.22 178.47-5.38L178.47-5.38ZM156.38-28.81L156.38-28.53L156.31-28.34L156.31-28.34Q155.41-26.22 155-24.48L155-24.48L155-24.48Q154.59-22.75 154.59-21.06L154.59-21.06L154.59-21.06Q154.59-20.06 154.72-19.06L154.72-19.06L154.72-19.06Q154.84-18.06 155.09-16.97L155.09-16.97L155.16-16.72L155.03-16.44L155.03-16.44Q154.13-14.63 153.64-13.23L153.64-13.23L153.64-13.23Q153.16-11.84 153.06-10.38L153.06-10.38L153.06-10.38Q153.81-10.47 154.69-10.59L154.69-10.59L154.69-10.59Q155.56-10.72 156.39-10.89L156.39-10.89L156.39-10.89Q157.22-11.06 157.95-11.31L157.95-11.31L157.95-11.31Q158.69-11.56 159.19-11.91L159.19-11.91L159.44-12.03L159.69-11.97L159.69-11.97Q160.78-11.72 161.83-11.63L161.83-11.63L161.83-11.63Q162.88-11.53 163.88-11.53L163.88-11.53L163.88-11.53Q165.25-11.53 166.63-11.72L166.63-11.72L166.63-11.72Q166.47-12.63 166.23-13.61L166.23-13.61L166.23-13.61Q166-14.59 165.66-15.69L165.66-15.69L165.59-16.06L165.59-16.06Q165.97-18.16 165.97-20.16L165.97-20.16L165.97-20.16Q165.97-22.19 165.55-24.05L165.55-24.05L165.55-24.05Q165.13-25.91 164.31-27.84L164.31-27.84L164.19-28.09L164.25-28.41L164.25-28.41Q164.59-29.63 164.81-30.78L164.81-30.78L164.81-30.78Q165.03-31.94 165.09-33.09L165.09-33.09L165.09-33.09Q164.66-33.16 164.23-33.19L164.23-33.19L164.23-33.19Q163.81-33.22 163.41-33.22L163.41-33.22L163.41-33.22Q162.53-33.22 161.66-33.09L161.66-33.09L161.66-33.09Q160.78-32.97 159.78-32.72L159.78-32.72L159.31-32.78L159.31-32.78Q158.41-32.94 157.66-33.14L157.66-33.14L157.66-33.14Q156.91-33.34 156.13-33.53L156.13-33.53L156.13-33.53Q156.06-33.06 156.06-32.63L156.06-32.63L156.06-32.63Q156.06-32.19 156.06-31.75L156.06-31.75L156.06-31.75Q156.06-31.06 156.14-30.34L156.14-30.34L156.14-30.34Q156.22-29.63 156.38-28.81L156.38-28.81ZM213.50-18.63L213.50-18.31L213.44-17.84L213.06-17.66L213.06-17.66Q210.22-16.13 208.19-14.08L208.19-14.08L208.19-14.08Q206.16-12.03 204.81-9.41L204.81-9.41L204.75-9.16L204.56-9.09L204.56-9.09Q203.31-8.34 202-7.28L202-7.28L202-7.28Q200.69-6.22 199.50-4.95L199.50-4.95L199.50-4.95Q198.31-3.69 197.31-2.28L197.31-2.28L197.31-2.28Q196.31-0.88 195.66 0.56L195.66 0.56L195.53 0.84L195.22 0.97L195.22 0.97Q195.16 1.03 194.70 1.16L194.70 1.16L194.70 1.16Q194.25 1.28 193.53 1.28L193.53 1.28L193.53 1.28Q192.81 1.28 191.86 1L191.86 1L191.86 1Q190.91 0.72 189.84 0L189.84 0L189.84 0Q189.34 0.09 188.83 0.17L188.83 0.17L188.83 0.17Q188.31 0.25 187.72 0.25L187.72 0.25L187.72 0.25Q185.88 0.25 184.67-0.25L184.67-0.25L184.67-0.25Q183.47-0.75 182.77-1.36L182.77-1.36L182.77-1.36Q182.06-1.97 181.78-2.48L181.78-2.48L181.78-2.48Q181.50-3 181.50-3.06L181.50-3.06L181.38-3.31L181.50-3.66L181.50-3.66Q182.22-5.38 182.56-7.19L182.56-7.19L182.56-7.19Q182.91-9 182.91-10.88L182.91-10.88L182.91-10.88Q182.91-12.19 182.77-13.53L182.77-13.53L182.77-13.53Q182.63-14.88 182.28-16.31L182.28-16.31L182.28-16.72L182.28-16.72Q182.66-18.25 182.89-19.73L182.89-19.73L182.89-19.73Q183.13-21.22 183.13-22.72L183.13-22.72L183.13-22.72Q183.13-24.38 182.84-25.97L182.84-25.97L182.84-25.97Q182.56-27.56 182.09-29.13L182.09-29.13L182.03-29.44L182.16-29.69L182.16-29.69Q182.84-31.38 183.17-33.08L183.17-33.08L183.17-33.08Q183.50-34.78 183.50-36.47L183.50-36.47L183.50-36.47Q183.50-37.84 183.30-39.20L183.30-39.20L183.30-39.20Q183.09-40.56 182.66-41.97L182.66-41.97L182.53-42.38L182.78-42.69L182.78-42.69Q182.81-42.72 183.16-43.08L183.16-43.08L183.16-43.08Q183.50-43.44 184.20-43.86L184.20-43.86L184.20-43.86Q184.91-44.28 185.97-44.61L185.97-44.61L185.97-44.61Q187.03-44.94 188.50-44.94L188.50-44.94L189.13-44.94L189.13-44.94Q190.28-45.84 191.30-46.13L191.30-46.13L191.30-46.13Q192.31-46.41 193.09-46.41L193.09-46.41L193.09-46.41Q193.78-46.41 194.20-46.31L194.20-46.31L194.20-46.31Q194.63-46.22 194.69-46.22L194.69-46.22L194.97-46.09L195.09-45.75L195.09-45.75Q195.66-44.56 196.56-43.36L196.56-43.36L196.56-43.36Q197.47-42.16 198.56-41.05L198.56-41.05L198.56-41.05Q199.66-39.94 200.89-38.94L200.89-38.94L200.89-38.94Q202.13-37.94 203.34-37.13L203.34-37.13L203.91-36.88L204.16-36.75L204.31-36.47L204.31-36.47Q205.75-33.53 207.88-31.38L207.88-31.38L207.88-31.38Q210-29.22 212.94-27.72L212.94-27.72L213.31-27.59L213.38-27.13L213.38-27.13Q213.38-27.06 213.41-26.97L213.41-26.97L213.41-26.97Q213.41-26.91 213.42-26.80L213.42-26.80L213.42-26.80Q213.44-26.69 213.44-26.56L213.44-26.56L213.44-26.56Q213.44-25.97 213.19-24.94L213.19-24.94L213.19-24.94Q212.94-23.91 212.16-22.72L212.16-22.72L212.16-22.72Q212.63-22.06 212.89-21.44L212.89-21.44L212.89-21.44Q213.16-20.81 213.30-20.27L213.30-20.27L213.30-20.27Q213.44-19.72 213.47-19.28L213.47-19.28L213.47-19.28Q213.50-18.84 213.50-18.63L213.50-18.63ZM194.19-16.84L194.31-16.56L194.19-16.31L194.19-16.31Q193.94-15.66 193.75-14.98L193.75-14.98L193.75-14.98Q193.56-14.31 193.41-13.63L193.41-13.63L193.41-13.63Q194.09-14.53 194.77-15.34L194.77-15.34L194.77-15.34Q195.44-16.16 195.78-16.63L195.78-16.63L195.91-16.91L196.16-17.03L196.16-17.03Q200.19-19.06 202.88-22.53L202.88-22.53L202.88-22.53Q201.56-24.22 200.02-25.52L200.02-25.52L200.02-25.52Q198.47-26.81 196.63-27.78L196.63-27.78L196.31-28.09L196.31-28.09Q195.72-28.88 195.09-29.67L195.09-29.67L195.09-29.67Q194.47-30.47 193.81-31.22L193.81-31.22L193.81-31.22Q193.88-30.88 193.95-30.58L193.95-30.58L193.95-30.58Q194.03-30.28 194.13-29.94L194.13-29.94L194.13-29.50L194.13-29.50Q193.16-26.09 193.16-22.97L193.16-22.97L193.16-22.97Q193.16-21.38 193.41-19.86L193.41-19.86L193.41-19.86Q193.66-18.34 194.19-16.84L194.19-16.84ZM238.16-22.09L238.16-22.09L238.16-22.09Q238.16-20.69 237.78-19.64L237.78-19.64L237.78-19.64Q237.41-18.59 236.94-17.88L236.94-17.88L236.94-17.88Q236.47-17.16 236.08-16.78L236.08-16.78L236.08-16.78Q235.69-16.41 235.66-16.38L235.66-16.38L235.34-16.13L234.91-16.25L234.91-16.25Q233.16-16.84 231.83-17.13L231.83-17.13L231.83-17.13Q230.50-17.41 229.19-17.41L229.19-17.41L229.19-17.41Q228.22-17.41 227.28-17.22L227.28-17.22L227.47-16.84L227.59-16.56L227.47-16.31L227.47-16.31Q226.72-14.19 226.44-12.09L226.44-12.09L226.44-12.09Q226.94-12.22 227.56-12.31L227.56-12.31L227.56-12.31Q228.19-12.41 228.75-12.47L228.75-12.47L228.75-12.47Q229.31-12.53 229.69-12.56L229.69-12.56L229.69-12.56Q230.06-12.59 230.09-12.59L230.09-12.59L230.34-12.69L230.59-12.53L230.59-12.53Q232.38-11.81 233.63-11.44L233.63-11.44L233.63-11.44Q234.88-11.06 236.16-11.06L236.16-11.06L236.16-11.06Q237.03-11.06 238.06-11.25L238.06-11.25L238.06-11.25Q239.09-11.44 240.41-11.78L240.41-11.78L240.78-11.91L241.09-11.66L241.09-11.66Q241.13-11.59 241.45-11.27L241.45-11.27L241.45-11.27Q241.78-10.94 242.16-10.27L242.16-10.27L242.16-10.27Q242.53-9.59 242.84-8.58L242.84-8.58L242.84-8.58Q243.16-7.56 243.16-6.16L243.16-6.16L243.16-6.16Q243.13-4.75 242.72-3.72L242.72-3.72L242.72-3.72Q242.31-2.69 241.84-1.98L241.84-1.98L241.84-1.98Q241.38-1.28 240.97-0.91L240.97-0.91L240.97-0.91Q240.56-0.53 240.53-0.50L240.53-0.50L240.13-0.31L239.75-0.44L239.75-0.44Q237.91-1.13 236.69-1.42L236.69-1.42L236.69-1.42Q235.47-1.72 234.31-1.72L234.31-1.72L234.31-1.72Q233.50-1.72 232.63-1.58L232.63-1.58L232.63-1.58Q231.75-1.44 230.59-1.16L230.59-1.16L230.16-1.16L230.16-1.16Q229.28-1.31 228.42-1.52L228.42-1.52L228.42-1.52Q227.56-1.72 226.69-1.91L226.69-1.91L226.69-1.91Q226.38-1.56 225.89-1.17L225.89-1.17L225.89-1.17Q225.41-0.78 224.70-0.47L224.70-0.47L224.70-0.47Q224-0.16 223.08 0.05L223.08 0.05L223.08 0.05Q222.16 0.25 221 0.25L221 0.25L221 0.25Q219.16 0.25 217.95-0.25L217.95-0.25L217.95-0.25Q216.75-0.75 216.05-1.36L216.05-1.36L216.05-1.36Q215.34-1.97 215.06-2.48L215.06-2.48L215.06-2.48Q214.78-3 214.78-3.06L214.78-3.06L214.66-3.31L214.78-3.66L214.78-3.66Q215.50-5.38 215.84-7.19L215.84-7.19L215.84-7.19Q216.19-9 216.19-10.88L216.19-10.88L216.19-10.88Q216.19-12.19 216.05-13.53L216.05-13.53L216.05-13.53Q215.91-14.88 215.56-16.31L215.56-16.31L215.56-16.72L215.56-16.72Q215.94-18.25 216.17-19.73L216.17-19.73L216.17-19.73Q216.41-21.22 216.41-22.72L216.41-22.72L216.41-22.72Q216.41-24.38 216.13-25.97L216.13-25.97L216.13-25.97Q215.84-27.56 215.38-29.13L215.38-29.13L215.31-29.44L215.44-29.69L215.44-29.69Q216.13-31.38 216.45-33.08L216.45-33.08L216.45-33.08Q216.78-34.78 216.78-36.47L216.78-36.47L216.78-36.47Q216.78-37.84 216.58-39.20L216.58-39.20L216.58-39.20Q216.38-40.56 215.94-41.97L215.94-41.97L215.81-42.38L216.06-42.69L216.06-42.69Q216.09-42.72 216.44-43.08L216.44-43.08L216.44-43.08Q216.78-43.44 217.48-43.86L217.48-43.86L217.48-43.86Q218.19-44.28 219.25-44.61L219.25-44.61L219.25-44.61Q220.31-44.94 221.78-44.94L221.78-44.94L221.78-44.94Q223.47-44.94 224.66-44.47L224.66-44.47L224.66-44.47Q225.84-44 226.56-43.47L226.56-43.47L226.56-43.47Q227.47-43.56 228.47-43.75L228.47-43.75L228.47-43.75Q229.47-43.94 230.47-44.28L230.47-44.28L230.72-44.41L231.06-44.34L231.06-44.34Q232.56-43.88 233.67-43.64L233.67-43.64L233.67-43.64Q234.78-43.41 235.78-43.41L235.78-43.41L235.78-43.41Q236.88-43.41 238.06-43.69L238.06-43.69L238.06-43.69Q239.25-43.97 240.84-44.53L240.84-44.53L241.22-44.69L241.56-44.47L241.56-44.47Q241.59-44.44 241.97-44.13L241.97-44.13L241.97-44.13Q242.34-43.81 242.78-43.17L242.78-43.17L242.78-43.17Q243.22-42.53 243.61-41.55L243.61-41.55L243.61-41.55Q244-40.56 244.09-39.16L244.09-39.16L244.09-38.59L244.09-38.59Q244.09-37.34 243.78-36.38L243.78-36.38L243.78-36.38Q243.47-35.41 243.08-34.73L243.08-34.73L243.08-34.73Q242.69-34.06 242.36-33.72L242.36-33.72L242.36-33.72Q242.03-33.38 242-33.34L242-33.34L241.69-33.09L241.22-33.22L241.22-33.22Q239.72-33.56 238.66-33.73L238.66-33.73L238.66-33.73Q237.59-33.91 236.69-33.91L236.69-33.91L236.69-33.91Q235.63-33.91 234.58-33.67L234.58-33.67L234.58-33.67Q233.53-33.44 232.06-32.97L232.06-32.97L231.63-32.91L231.63-32.91Q230.31-33.16 229.11-33.28L229.11-33.28L229.11-33.28Q227.91-33.41 226.69-33.41L226.69-33.41L226.69-33.41Q226.78-32.53 226.95-31.67L226.95-31.67L226.95-31.67Q227.13-30.81 227.41-29.94L227.41-29.94L227.41-29.50L227.41-29.50Q227.22-28.94 227.11-28.39L227.11-28.39L227.11-28.39Q227-27.84 226.91-27.25L226.91-27.25L226.91-27.25Q227.81-27 228.61-26.91L228.61-26.91L228.61-26.91Q229.41-26.81 230.28-26.81L230.28-26.81L230.28-26.81Q231.44-26.81 232.63-27.02L232.63-27.02L232.63-27.02Q233.81-27.22 235.22-27.66L235.22-27.66L235.59-27.78L235.91-27.53L235.91-27.53Q235.94-27.50 236.30-27.17L236.30-27.17L236.30-27.17Q236.66-26.84 237.08-26.17L237.08-26.17L237.08-26.17Q237.50-25.50 237.83-24.48L237.83-24.48L237.83-24.48Q238.16-23.47 238.16-22.09Z" fill="#000000" stroke="#ad00ff" stroke-width="1.5"></path></g></g><style>text {
  font-size: 64px;
  font-family: Arial Black;
  dominant-baseline: central;
  text-anchor: middle;
}</style></svg>