<svg width="121" height="61" viewBox="0 0 121 61" fill="none" xmlns="http://www.w3.org/2000/svg">
        <g clip-path="url(#clip0_3942_134)">
                <mask id="mask0_3942_134" style="mask-type:luminance" maskUnits="userSpaceOnUse"
                        x="46" y="3" width="147" height="20">
                        <path d="M46.9512 3.15186H192.642L192.914 22.9408H47.2239L46.9512 3.15186Z"
                                fill="white"></path>
                </mask>
                <g mask="url(#mask0_3942_134)">
                        <path
                                d="M51.5086 14.1371V8.80028L49.7557 9.50146C49.7557 9.50146 49.3272 10.3974 49.4051 11.7219C49.444 12.7737 50.0673 13.9812 50.5348 14.5266L51.5086 14.1371ZM56.2222 3.15186C56.6117 3.19081 57.2739 3.38558 57.7414 3.77513C58.2478 4.24259 58.3647 4.98272 58.2088 5.64495C58.053 6.22927 57.8583 6.54091 57.235 6.96941C56.6117 7.39791 56.1442 7.43687 56.1442 7.43687V10.0079L57.3518 10.9428L56.1442 12.0335V15.5394C56.1442 15.5394 57.1571 14.7214 57.9362 13.1242C57.9362 13.1242 57.9751 13.0463 58.053 12.8516C58.1309 13.2801 58.092 14.176 57.5856 15.2668C57.196 16.1238 56.5338 16.9028 55.6378 17.3703C54.1186 18.1883 52.95 18.2663 51.7424 18.0325C50.3011 17.7598 48.9766 16.9808 48.1196 15.6173C47.4963 14.6435 47.2236 13.5527 47.2236 12.3452C47.2626 9.96892 49.0935 7.94328 51.197 7.16418C51.4697 7.08627 51.5476 7.00837 51.8982 6.96941C51.7424 7.08627 51.5476 7.20314 51.3139 7.35896C50.6516 7.78746 50.0673 8.64446 49.7946 9.30669L53.8459 7.55373V13.0463L50.6127 14.6435C51.0022 15.1499 52.1319 15.89 53.1058 16.0069C54.7419 16.2017 55.8326 15.5784 55.8326 15.5784V11.9946L54.625 10.9428L55.8326 10.0079V7.43687C55.1314 7.35896 54.1576 7.04732 53.6901 6.93046C52.95 6.77464 50.5348 6.11241 50.1452 6.0345C49.7557 5.99554 49.2882 5.99554 49.0155 6.22927C48.7429 6.463 48.5481 6.93046 48.665 7.32C48.7429 7.55373 48.8987 7.67059 49.0155 7.78746C49.0155 7.78746 48.8597 7.78746 48.626 7.63164C48.1585 7.35896 47.808 6.85255 47.769 6.19032C47.7463 5.78266 47.8272 5.3759 48.0043 5.00803C48.1815 4.64016 48.449 4.3232 48.7818 4.08677C49.4051 3.69722 50.1063 3.46349 50.9243 3.58036C52.1319 3.73618 53.7291 4.3984 55.1704 4.749C55.7157 4.86586 56.1442 4.90481 56.5338 4.71004C56.7286 4.59318 57.0402 4.24259 56.7675 3.81408C56.4559 3.30767 55.8716 3.30767 55.3652 3.22976C55.8326 3.15186 55.9105 3.15186 56.2222 3.15186Z"
                                fill="white"></path>
                </g>
                <mask id="mask1_3942_134" style="mask-type:luminance" maskUnits="userSpaceOnUse"
                        x="46" y="3" width="147" height="20">
                        <path d="M46.9512 3.15186H192.642L192.914 22.9408H47.2239L46.9512 3.15186Z"
                                fill="white"></path>
                </mask>
                <g mask="url(#mask1_3942_134)">
                        <path
                                d="M72.0765 12.7347L70.2066 14.0591V9.69623L72.0765 12.7347ZM71.9986 8.52759L69.934 9.73518L67.9862 10.748V15.8121L67.2461 16.3964L67.363 16.5133L68.1031 15.929L70.4014 17.9157L74.3748 14.8772L74.2969 14.7603L72.0765 16.4354L70.2066 14.8382V14.215L73.8294 11.644L71.9986 8.52759Z"
                                fill="white"></path>
                </g>
                <mask id="mask2_3942_134" style="mask-type:luminance" maskUnits="userSpaceOnUse"
                        x="46" y="3" width="147" height="20">
                        <path d="M46.9512 3.15186H192.642L192.914 22.9408H47.2239L46.9512 3.15186Z"
                                fill="white"></path>
                </mask>
                <g mask="url(#mask2_3942_134)">
                        <path
                                d="M61.5593 19.9025C62.0657 20.0193 63.0006 20.0972 64.1303 19.5519C65.3769 18.9675 65.8443 17.682 65.8443 16.3965L65.8833 14.5657V10.5144L66.6624 9.93006L66.5844 9.8132L65.8054 10.3975L64.1303 8.44978L61.5593 10.3586V3.89209L58.9493 6.0346C59.0662 6.1125 59.6505 6.19041 59.6505 6.73578V15.8122L58.2871 16.6692L58.365 16.7861L58.9493 16.3576L60.5854 17.8379L63.1564 15.8512L63.0785 15.7343L62.4553 16.2018L61.5983 15.6174V10.5533L62.6111 9.93006L64.0134 11.3714V15.7343C64.0134 16.9029 63.7018 18.2664 63.0785 18.9675C62.4553 19.6687 62.2215 19.7077 61.5593 19.9025Z"
                                fill="white"></path>
                </g>
                <mask id="mask3_3942_134" style="mask-type:luminance" maskUnits="userSpaceOnUse"
                        x="-64" y="42" width="147" height="21">
                        <path
                                d="M-63.3682 42.3706H82.3223L82.595 62.1596H-63.0955L-63.3682 42.3706Z"
                                fill="white"></path>
                </mask>
                <g mask="url(#mask3_3942_134)">
                        <path
                                d="M73.3625 51.9534L71.2979 53.2779V48.915L73.3625 51.9534ZM73.3236 47.7463L71.22 48.9539L69.3112 49.9668V55.0309L68.4932 55.6152L68.61 55.732L69.3502 55.1477L71.6485 57.1344L75.6219 54.0959L75.544 53.9791L73.3236 55.6541L71.4927 54.018V53.3948L75.1155 50.8238L73.3236 47.7463Z"
                                fill="white"></path>
                </g>
                <path
                        d="M66.7147 57.1333L69.1302 54.9917L69.0137 54.8751L68.4309 55.3821L67.4184 54.4468V49.6944L68.3916 49.0315L68.3144 48.9149L67.4184 49.5778L65.7823 47.7858L63.4454 49.5778L61.77 47.8645L59.5118 49.5778L57.8363 47.8645L55.4208 49.9042L55.498 50.0207L56.2774 49.3972L57.3701 50.6064V54.8139L56.8252 55.2802L58.5779 57.1741L60.3699 55.4608L59.6298 54.7207V49.6565L60.0581 49.3069L61.1872 50.7099V54.8766L60.8376 55.3428L62.4737 57.0955L64.2263 55.42L63.527 54.7571V49.6929L64.034 49.3039L65.4909 50.6676V54.8343L64.9081 55.2233L66.7147 57.1333ZM52.2243 55.2641L51.525 55.8469L51.6022 55.9634L52.3423 55.3399L53.9391 57.1319L56.2381 55.1447L56.1609 55.0281L55.4616 55.6109L54.5262 54.559V49.8488L55.3421 49.1859L55.2256 49.0694L54.4461 49.7323L52.7707 47.8383L50.2939 49.7862L50.6057 49.8634L51.2293 49.3564L52.2418 50.4855L52.2243 55.2641ZM54.2727 45.7593L52.5201 47.2788L51.1171 45.7986L52.8741 44.2397L54.2727 45.7593Z"
                        fill="white"></path>
                <mask id="mask4_3942_134" style="mask-type:luminance" maskUnits="userSpaceOnUse"
                        x="-64" y="42" width="147" height="21">
                        <path
                                d="M-63.3682 42.3706H82.3223L82.595 62.1596H-63.0955L-63.3682 42.3706Z"
                                fill="white"></path>
                </mask>
                <g mask="url(#mask4_3942_134)">
                        <path
                                d="M43.3289 53.3558V48.019L41.6928 48.7202C41.6928 48.7202 41.2643 49.6162 41.3422 50.9406C41.3811 51.9924 42.0044 53.2 42.4718 53.7454L43.3289 53.3558ZM48.0034 42.3706C48.4319 42.4096 49.0552 42.6043 49.5226 42.9939C50.0291 43.4613 50.1459 44.2015 49.9901 44.8637C49.8343 45.448 49.6395 45.7597 49.0162 46.1882C48.393 46.6167 47.9255 46.5777 47.9255 46.5777V49.1487L49.0941 50.1615L47.9255 51.1744V54.6413C47.9255 54.6413 48.8994 53.9401 49.7174 52.343C49.7174 52.343 49.7564 52.2651 49.8343 52.0703C49.9122 52.4988 49.8732 53.3948 49.3668 54.4855C48.9773 55.3425 48.3151 56.1216 47.4191 56.5891C45.8999 57.4071 44.7312 57.485 43.5236 57.2513C42.0823 56.9786 40.7578 56.1995 39.9008 54.8361C39.2776 53.8622 39.0049 52.7715 39.0049 51.5639C39.0438 49.1877 40.8747 47.162 42.9783 46.3829C43.212 46.305 43.3289 46.2271 43.6794 46.1882C43.5236 46.305 43.3289 46.4219 43.0951 46.5777C42.4329 47.0062 41.8486 47.8632 41.5759 48.5254L45.5882 46.8504V52.343L42.3939 53.8622C42.7835 54.3686 43.9132 55.1088 44.887 55.2256C46.5231 55.4204 47.5749 54.7192 47.5749 54.7192V51.1354L46.4063 50.1226L47.5749 49.1098V46.5388C46.8737 46.4608 45.9778 46.2271 45.4714 46.1103C44.7312 45.9544 42.316 45.2922 41.9265 45.2143C41.5369 45.1753 41.0695 45.1753 40.7968 45.4091C40.5241 45.6428 40.3293 46.1103 40.4462 46.4998C40.5241 46.7335 40.6799 46.8504 40.7968 46.9673C40.7968 46.9673 40.641 46.9673 40.4073 46.8114C39.9398 46.5388 39.5892 46.0323 39.5502 45.3701C39.5275 44.9625 39.6085 44.5557 39.7856 44.1878C39.9627 43.82 40.2302 43.503 40.5631 43.2666C41.1863 42.877 41.8875 42.6433 42.7056 42.7602C43.9132 42.916 45.5103 43.5782 46.9516 43.9288C47.497 44.0457 47.9255 44.0846 48.315 43.8898C48.5098 43.773 48.8215 43.4224 48.5488 42.9939C48.2371 42.4875 47.6528 42.4875 47.1464 42.4096C47.5749 42.3706 47.6918 42.3706 48.0034 42.3706Z"
                                fill="white"></path>
                </g>
                <mask id="mask5_3942_134" style="mask-type:luminance" maskUnits="userSpaceOnUse"
                        x="-64" y="42" width="147" height="21">
                        <path
                                d="M-63.3682 42.3706H82.3223L82.595 62.1596H-63.0955L-63.3682 42.3706Z"
                                fill="white"></path>
                </mask>
                <g mask="url(#mask5_3942_134)">
                        <path
                                d="M78.3101 48.7591V51.2912L79.4008 52.0313C79.4008 52.0313 81.2707 50.551 81.9719 49.2266C81.9719 49.2266 81.1148 50.3563 79.9852 50.0057C79.0113 49.733 78.5438 48.7981 78.5438 48.7981M76.4013 55.4204C76.4013 55.4204 77.2194 54.0959 78.6607 54.3686C80.0241 54.6413 80.6474 56.0436 80.6474 56.0436V52.8494L79.5177 52.0703C78.5049 53.0831 76.6351 54.5244 76.4013 55.4204ZM77.7648 57.8356C77.4921 57.9135 76.3624 57.6408 76.0897 56.4721C75.817 55.3425 76.6351 54.6023 77.8427 53.3947L76.4013 52.1092V49.694C76.4013 49.694 77.4531 49.1876 78.2712 48.6812L79.9462 47.6294C79.9462 47.6294 80.5695 48.3696 81.2707 48.3306C82.3614 48.2527 82.3225 47.3957 82.2835 47.2009C82.4783 47.5126 82.9847 48.4864 81.0369 50.6289L82.5951 51.8365V54.9919C82.5951 54.9919 80.8032 55.8878 79.0503 57.1344C79.0503 57.1344 78.0764 55.9657 77.2583 56.5111C76.713 56.9396 76.9857 57.5629 77.7648 57.8356Z"
                                fill="white"></path>
                </g>
                <mask id="mask6_3942_134" style="mask-type:luminance" maskUnits="userSpaceOnUse"
                        x="-4" y="21" width="147" height="20">
                        <path d="M141.743 21L142.016 40.789H-3.67458L-3.94727 21H141.743Z"
                                fill="white"></path>
                </mask>
                <g mask="url(#mask6_3942_134)">
                        <path
                                d="M28.5016 37.2831C27.4888 37.1662 27.0603 36.5819 27.0603 36.0755C27.0603 35.7639 27.3719 35.1795 27.9952 35.1016C28.6185 35.0237 29.2417 35.2964 29.7871 35.9197L32.1633 33.3876L32.0465 33.2708L31.4232 33.9719C30.761 33.2708 29.9819 32.8033 29.047 32.6864V24.9345L35.0849 35.8028C35.0849 35.8028 35.2408 35.9197 35.5134 35.9197C35.7472 35.9197 35.6693 35.7639 35.6693 35.7639V24.8176C36.1757 24.8176 36.8379 24.5449 37.2274 24.1554C38.3961 22.9867 37.9286 21.7012 37.8118 21.5454C37.7339 22.0908 37.3054 22.6751 36.5652 22.6751C35.5914 22.6751 35.007 21.9739 35.007 21.9739L32.5529 24.6228L32.6698 24.7397L33.332 23.9996C34.15 24.7397 34.6175 24.8176 35.2408 24.8566V31.2062L30.8389 23.1426C30.4104 22.4803 29.7871 21.896 28.8132 21.896C27.6836 21.896 26.8655 22.8699 26.7486 23.6879C26.6318 24.6228 26.7486 24.8566 26.7486 24.8566C26.7486 24.8566 26.9045 23.8048 27.5667 23.8048C28.151 23.8048 28.3458 24.1164 28.6185 24.506V27.077C27.9952 27.1159 26.5149 27.1938 26.3981 28.8299C26.3981 29.4532 26.7876 30.0765 27.1382 30.2713C27.5667 30.5439 27.9173 30.5439 27.9173 30.5439C27.9173 30.5439 27.4109 30.2713 27.5667 29.7259C27.7225 29.2584 28.6185 29.1805 28.6574 29.3753V32.6475C28.151 32.6475 26.7097 32.6864 25.9696 34.0109C25.5411 34.79 25.58 35.6859 26.0085 36.3092C26.3981 36.8546 27.1771 37.5168 28.5016 37.2831Z"
                                fill="white"></path>
                </g>
                <mask id="mask7_3942_134" style="mask-type:luminance" maskUnits="userSpaceOnUse"
                        x="-4" y="21" width="147" height="20">
                        <path d="M141.743 21L142.016 40.789H-3.67458L-3.94727 21H141.743Z"
                                fill="white"></path>
                </mask>
                <g mask="url(#mask7_3942_134)">
                        <path
                                d="M41.5904 30.5828L39.5647 31.9073V27.5444L41.5904 30.5828ZM41.5124 26.3757L39.4089 27.5833L37.578 28.5961V33.6603L36.8379 34.2446L36.9548 34.3614L37.6949 33.7771L39.8374 35.7638L43.8108 32.7253L43.7329 32.6085L41.5124 34.2835L39.7205 32.6474V32.0242L43.3433 29.4532L41.5124 26.3757Z"
                                fill="white"></path>
                </g>
                <mask id="mask8_3942_134" style="mask-type:luminance" maskUnits="userSpaceOnUse"
                        x="-4" y="21" width="147" height="20">
                        <path d="M141.743 21L142.016 40.789H-3.67458L-3.94727 21H141.743Z"
                                fill="white"></path>
                </mask>
                <g mask="url(#mask8_3942_134)">
                        <path
                                d="M47.1225 35.8806L45.1748 34.3224L44.3178 34.9067L44.2399 34.7899L45.0969 34.1666V29.7647C45.1358 27.9728 43.3829 28.4013 43.4997 26.4925C43.5387 25.6355 44.3957 25.0122 44.8242 24.8175C45.2917 24.5837 45.7591 24.5837 45.7591 24.5837C45.7591 24.5837 44.9411 25.0512 45.1358 25.7524C45.4475 26.8431 47.3173 26.921 47.3562 28.3623V33.3485L48.5638 34.4393L48.9144 34.1666V28.7519L48.3691 28.0117L50.3168 26.3367L52.1087 27.8559L51.2907 28.5571V33.3485L53.0826 34.673L53.3942 34.4782V28.7519L52.6541 28.0507L54.6018 26.3367L56.4327 27.778L57.1728 27.1547L57.2507 27.2716L55.6146 28.674V33.3485L51.4465 35.8416L49.304 34.2445L47.1225 35.8806Z"
                                fill="white"></path>
                </g>
                <mask id="mask9_3942_134" style="mask-type:luminance" maskUnits="userSpaceOnUse"
                        x="-4" y="21" width="147" height="20">
                        <path d="M141.743 21L142.016 40.789H-3.67458L-3.94727 21H141.743Z"
                                fill="white"></path>
                </mask>
                <g mask="url(#mask9_3942_134)">
                        <path
                                d="M74.2346 32.8811L76.2603 34.634V29.2583L74.2346 27.4664V32.8811ZM78.5586 28.4792L79.2598 27.8559L79.3767 27.9728L78.5196 28.596V33.6212L76.494 34.7898L74.6242 35.8806L72.2479 33.9328L71.6247 34.4782L71.5078 34.3613L72.3259 33.816V28.3623H72.209L74.2736 27.3495L76.0655 26.3367L78.5586 28.4792Z"
                                fill="white"></path>
                </g>
                <mask id="mask10_3942_134" style="mask-type:luminance" maskUnits="userSpaceOnUse"
                        x="-4" y="21" width="147" height="20">
                        <path d="M141.743 21L142.016 40.789H-3.67458L-3.94727 21H141.743Z"
                                fill="white"></path>
                </mask>
                <g mask="url(#mask10_3942_134)">
                        <path
                                d="M83.2724 27.9729L84.7917 26.4536C84.7917 26.4536 84.9864 26.6484 85.1812 26.7263C85.2981 26.7653 85.7655 26.999 86.1551 26.7653C86.3888 26.6484 86.4277 26.6095 86.6615 26.3757C86.7004 27.5444 86.1161 28.3624 85.4149 28.713C85.1033 28.8688 84.0905 29.1026 83.1556 28.0508V33.4655L84.2852 34.2835L85.1033 33.6603L85.1812 33.7771L82.6881 35.8028L80.7793 34.1277L80.0781 34.751L79.9613 34.6341L80.8183 33.7382V29.1026L80.195 28.0897L79.4938 28.6741L79.377 28.5572L81.7921 26.4536L83.2724 27.9729Z"
                                fill="white"></path>
                </g>
                <mask id="mask11_3942_134" style="mask-type:luminance" maskUnits="userSpaceOnUse"
                        x="-4" y="21" width="147" height="20">
                        <path d="M141.743 21L142.016 40.789H-3.67458L-3.94727 21H141.743Z"
                                fill="white"></path>
                </mask>
                <g mask="url(#mask11_3942_134)">
                        <path
                                d="M89.6611 30.2323L92.4659 26.2979C92.4659 26.2979 92.8554 26.7264 93.4787 26.8822C94.3357 27.1159 95.1148 26.2979 95.1148 26.2979C94.959 27.3496 94.4136 28.5572 93.2839 28.752C92.2711 28.9078 91.3362 28.1677 91.3362 28.1677L91.1414 28.4404L95.0369 34.1277L95.816 33.4655L95.9328 33.5824L93.245 35.8417L89.6611 30.2323Z"
                                fill="white"></path>
                </g>
                <mask id="mask12_3942_134" style="mask-type:luminance" maskUnits="userSpaceOnUse"
                        x="-4" y="21" width="147" height="20">
                        <path d="M141.743 21L142.016 40.789H-3.67458L-3.94727 21H141.743Z"
                                fill="white"></path>
                </mask>
                <g mask="url(#mask12_3942_134)">
                        <path
                                d="M87.4789 24.9345C87.4789 24.0775 86.9725 23.5711 86.505 23.61L89.4266 21.5454V33.3097L90.3615 34.1278L90.9848 33.6214L91.1016 33.7382L88.6475 35.8028L86.9725 34.2836L86.3102 34.8679L86.1934 34.751L87.5178 33.7772V24.9345H87.4789Z"
                                fill="white"></path>
                </g>
                <mask id="mask13_3942_134" style="mask-type:luminance" maskUnits="userSpaceOnUse"
                        x="-4" y="21" width="147" height="20">
                        <path d="M141.743 21L142.016 40.789H-3.67458L-3.94727 21H141.743Z"
                                fill="white"></path>
                </mask>
                <g mask="url(#mask13_3942_134)">
                        <path
                                d="M67.6899 28.2456C67.6899 28.2456 67.3393 28.6352 66.8329 28.6352C66.2875 28.6352 66.0538 28.2456 66.0538 28.2456V29.8428C66.0538 29.8428 66.2875 29.4532 66.8329 29.4532C67.3783 29.4532 67.6899 29.8038 67.6899 29.8038V28.2456ZM67.612 24.8176L66.6381 23.8048L66.0538 24.2333V28.0119C66.0538 28.0119 66.4044 28.4404 66.9498 28.4404C67.4951 28.4404 67.612 28.0119 67.612 28.0119V24.8176ZM66.0538 35.4912C66.0538 35.4912 66.755 35.686 67.3003 35.2575C67.8847 34.79 67.612 34.1667 67.612 34.1667V30.1155C67.612 30.1155 67.4562 29.6869 66.9498 29.6869C66.4044 29.6869 66.0538 30.1155 66.0538 30.1155V35.4912ZM61.7688 24.7397C61.7688 23.9606 61.4182 23.4932 60.9118 23.4932C60.1327 23.4932 59.9379 24.5449 59.9379 24.5449C59.9379 24.5449 59.7821 23.7269 60.5222 22.9867C60.9118 22.5582 61.6519 21.9739 62.8206 22.2466C64.0282 22.5193 64.4956 23.4152 64.4956 24.2333V35.1796C64.7012 35.2295 64.9092 35.2685 65.1189 35.2964C65.4695 35.3743 65.6643 35.4522 65.6643 35.4522V22.2856H66.0538V24.0775L68.43 22.1687L70.2219 23.7269L71.0789 23.0257L71.1569 23.1426L70.2999 23.8827V34.0499C70.2609 34.7121 70.144 35.3743 69.4818 35.7639C68.0405 36.5819 66.2875 35.647 64.7293 35.4133C63.5607 35.2575 61.7688 35.0237 61.3013 36.0755C61.1455 36.4261 61.1455 36.9325 61.6909 37.2831C62.7427 37.9453 67.4172 36.1534 69.0144 36.8546C70.4557 37.5168 70.4557 38.5686 70.2609 39.2698C69.8714 40.5943 68.1184 40.8669 68.1184 40.8669C68.1184 40.8669 68.9754 40.3995 68.7417 39.5814C68.6248 39.1919 68.3521 39.075 67.4172 39.1529C65.4305 39.3867 63.0153 40.3216 61.4182 39.6593C60.6002 39.3087 60.0158 38.3349 60.0548 37.3221C60.0937 35.9197 61.8077 35.3354 61.8077 35.3354V30.0765C61.7688 29.8817 60.8728 29.9207 60.6391 30.3102C60.3275 30.8945 61.0287 31.1672 61.0287 31.1672C61.0287 31.1672 60.4833 31.2451 60.0158 30.7387C59.7821 30.505 59.3146 29.609 59.9379 28.752C60.4443 28.0509 61.0676 27.934 61.8467 27.8561L61.7688 24.7397Z"
                                fill="white"></path>
                </g>
        </g>
        <defs>
                <clipPath id="clip0_3942_134">
                        <rect width="120" height="60" fill="white"
                                transform="translate(0.799805 0.5)"></rect>
                </clipPath>
        </defs>
</svg>