<svg width="66" height="25" viewBox="0 0 66 25" fill="none" xmlns="http://www.w3.org/2000/svg">
        <g clip-path="url(#clip0_3942_217)">
                <path
                        d="M20.6664 18.1621L16.7269 8.12158H13.2123L9.30531 18.1621L5.62816 8.12158H0.899414L7.56424 24.572H10.8491L14.9858 14.7989L19.0901 24.572H22.375L29.0398 8.12158H24.3133L20.6664 18.1621Z"
                        fill="white"></path>
                <path d="M36.4357 8.12158H32.1016V24.572H36.4357V8.12158Z" fill="white"></path>
                <path d="M45.3549 1.54199H40.9883V24.572H45.3549V1.54199Z" fill="white"></path>
                <path
                        d="M34.2558 -9.42021e-05C33.9049 -0.0062147 33.5565 0.0590149 33.2315 0.191651C32.9065 0.324287 32.6117 0.521574 32.365 0.771586C32.1183 1.0216 31.9247 1.31914 31.796 1.64622C31.6674 1.97331 31.6062 2.32314 31.6163 2.67457C31.6163 3.37993 31.896 4.0564 32.3938 4.55516C32.8916 5.05392 33.5668 5.33412 34.2709 5.33412C34.9749 5.33412 35.6501 5.05392 36.1479 4.55516C36.6457 4.0564 36.9254 3.37993 36.9254 2.67457C36.9291 2.32229 36.8626 1.97281 36.7298 1.64662C36.597 1.32043 36.4004 1.02409 36.1518 0.774975C35.9032 0.525861 35.6074 0.328987 35.2818 0.195895C34.9562 0.062803 34.6074 -0.00382893 34.2558 -9.42021e-05Z"
                        fill="white"></path>
                <path
                        d="M61.5655 1.54199V10.0172C60.8659 9.2818 60.0245 8.69645 59.0923 8.29665C58.1601 7.89685 57.1566 7.69094 56.1426 7.6914H56.0288H55.6922H55.6597C55.4779 7.69822 55.2966 7.71452 55.1165 7.74024C54.454 7.82095 53.8062 7.99477 53.1921 8.25657C52.2942 8.64062 51.4885 9.21233 50.8289 9.93347C50.1183 10.7224 49.5714 11.645 49.2201 12.6477C48.8087 13.8314 48.6091 15.0785 48.6305 16.3317C48.6091 17.585 48.8087 18.8321 49.2201 20.0158C49.5726 21.0215 50.1255 21.9449 50.8451 22.73C51.5114 23.4542 52.322 24.0303 53.2246 24.4209C54.1387 24.8084 55.1222 25.0047 56.1147 24.9977H56.2958C56.4305 24.9977 56.5636 24.9915 56.6951 24.9791H56.7415C58.5754 24.8326 60.2916 24.0156 61.5631 22.6835V24.579H65.8996V1.55362L61.5655 1.54199ZM60.4744 19.7181C60.0479 20.1274 59.5444 20.4475 58.9932 20.6599C58.442 20.8724 57.8542 20.9728 57.2639 20.9554C56.6534 20.9609 56.0475 20.8496 55.4787 20.6275C54.9444 20.4196 54.459 20.1028 54.0533 19.6972C53.6415 19.2797 53.3198 18.7817 53.1085 18.2342C52.6509 17.0145 52.6509 15.6699 53.1085 14.4502C53.3228 13.9039 53.6467 13.4076 54.0603 12.9919C54.4663 12.5866 54.9516 12.2699 55.4856 12.0616C56.0545 11.8397 56.6604 11.7284 57.2708 11.7336C58.4602 11.6983 59.615 12.1375 60.4813 12.9547C61.3403 13.7687 61.7697 14.8983 61.7697 16.3434C61.7697 17.7885 61.338 18.9134 60.4744 19.7181Z"
                        fill="white"></path>
        </g>
        <defs>
                <clipPath id="clip0_3942_217">
                        <rect width="65" height="25" fill="white" transform="translate(0.899414)"></rect>
                </clipPath>
        </defs>
</svg>