<svg width="84" height="21" viewBox="0 0 84 21" fill="none" xmlns="http://www.w3.org/2000/svg">
        <g clipPath="url(#clip0_3942_199)">
                <path
                        d="M27.3007 8.20542C27.3007 6.71649 25.8528 5.13515 23.3473 5.13515C20.5338 5.13515 17.443 7.19911 16.9706 11.3168C16.488 15.4755 19.0757 17.3238 21.6838 17.3238C24.292 17.3238 25.6577 16.3072 27.0543 14.9518C25.8528 13.4423 24.3023 14.1406 24.0045 14.2946C23.6759 14.4589 23.2549 14.6848 22.3924 14.6848C21.3861 14.6848 20.3592 14.233 20.3592 12.3539C26.8078 11.7172 27.3007 9.69435 27.3007 8.20542ZM24.1072 8.45187C24.0661 8.91395 23.8813 9.70462 20.6159 10.1462C21.3039 7.70227 22.6183 7.51743 23.2241 7.51743C23.7889 7.51743 24.1483 7.95898 24.1072 8.45187ZM13.1816 8.85233C13.1816 8.85233 11.7953 13.2062 11.6824 13.5656C11.6413 13.1959 10.6247 5.38159 10.6247 5.38159C8.26296 5.38159 6.99994 7.06562 6.33249 8.84207C6.33249 8.84207 4.64846 13.2062 4.5047 13.5758C4.49443 13.237 4.24799 8.89341 4.24799 8.89341C4.10423 6.71649 2.11215 5.39186 0.5 5.39186L2.45101 17.2314C4.92571 17.2211 6.26061 15.5474 6.95886 13.7709C6.95886 13.7709 8.44779 9.92025 8.5094 9.74569C8.51967 9.90999 9.57732 17.2314 9.57732 17.2314C12.0623 17.2314 13.3972 15.6603 14.116 13.9455L17.597 5.39186C15.1428 5.39186 13.849 7.06562 13.1816 8.85233ZM36.4191 5.11461C34.8891 5.11461 33.7185 5.94636 32.7327 7.16831V7.15804L33.6158 0.0419922C31.5826 0.0419922 29.9294 1.80817 29.6111 4.43689L28.0708 17.139C29.2414 17.139 30.4839 16.8001 31.1514 15.9376C31.7469 16.7077 32.6403 17.3238 33.9649 17.3238C37.3946 17.3238 39.7461 13.3397 39.7461 9.60193C39.7255 6.1928 38.0723 5.11461 36.4191 5.11461ZM36.1008 11.2244C35.7414 13.3088 34.581 14.7259 33.4618 14.7259C32.3322 14.7259 31.8496 14.2227 31.8496 14.2227C32.0653 12.395 32.1988 11.2757 32.6095 10.3105C33.0202 9.34522 33.9957 7.80495 35.0123 7.80495C36.0084 7.80495 36.4602 9.12958 36.1008 11.2244ZM48.31 5.39186H45.9174L45.9277 5.26864C46.092 3.70783 46.4616 2.88636 47.6836 2.75287C48.5153 2.67072 48.885 2.23944 48.9774 1.76709C49.0493 1.39743 49.2752 0.113871 49.2752 0.113871C44.4696 0.083066 42.9601 2.1573 42.5699 5.31998L42.5596 5.39186H42.5083C41.7279 5.39186 40.8653 6.27495 40.7216 7.39421L40.6702 7.80495H42.2721L40.9269 18.9154L40.5162 20.9075C40.5676 20.9075 40.6292 20.9178 40.6805 20.9178C42.9293 20.8356 44.3669 19.0592 44.6852 16.4818L45.7326 7.80495H46.4822C47.2215 7.80495 48.0841 7.06562 48.2381 5.83341L48.31 5.39186ZM60.7553 5.18649C57.9931 5.18649 55.3849 7.21965 54.584 10.4131C53.7831 13.6066 54.9947 17.3854 59.0611 17.3854C63.1171 17.3854 65.4583 13.4526 65.4583 10.177C65.4583 6.92186 63.2506 5.18649 60.7553 5.18649ZM61.8746 11.1217C61.7309 12.5695 61.0942 14.767 59.3486 14.767C57.5927 14.767 57.8391 12.1999 58.0137 10.9779C58.1985 9.67381 58.9276 7.81522 60.4986 7.81522C61.9054 7.81522 62.0389 9.48898 61.8746 11.1217ZM79.1051 8.85233C79.1051 8.85233 77.7189 13.2062 77.6059 13.5656C77.5648 13.1959 76.5482 5.38159 76.5482 5.38159C74.1865 5.38159 72.9235 7.06562 72.256 8.84207C72.256 8.84207 70.572 13.2062 70.4282 13.5758C70.418 13.237 70.1715 8.89341 70.1715 8.89341C70.0278 6.71649 68.0357 5.39186 66.4235 5.39186L68.3643 17.2314C70.839 17.2211 72.1739 15.5474 72.8721 13.7709C72.8721 13.7709 74.3611 9.92025 74.4124 9.74569C74.4227 9.90999 75.4803 17.2314 75.4803 17.2314C77.9653 17.2314 79.3002 15.6603 80.019 13.9455L83.5 5.39186C81.0561 5.39186 79.7623 7.06562 79.1051 8.85233ZM50.569 0.113871L48.5564 16.3483L48.1457 18.3507C48.197 18.3507 48.2586 18.3609 48.31 18.3609C50.4766 18.3301 52.0169 16.4305 52.3044 14.0379L53.4647 4.72441C53.8139 1.88005 52.1196 0.113871 50.569 0.113871Z"
                        fill="white"></path>
        </g>
        <defs>
                <clipPath id="clip0_3942_199">
                        <rect width="83" height="20.9121" fill="white"
                                transform="translate(0.5 0.0439453)"></rect>
                </clipPath>
        </defs>
</svg>