<svg width="72" height="23" viewBox="0 0 72 23" fill="none" xmlns="http://www.w3.org/2000/svg"><path d="M51.2883 22.9153C51.1432 22.9153 50.9996 22.8868 50.8655 22.8313C50.7315 22.7757 50.6097 22.6944 50.5071 22.5918C50.4046 22.4892 50.3232 22.3674 50.2677 22.2334C50.2122 22.0994 50.1836 21.9557 50.1836 21.8106V1.18891C50.1836 1.04383 50.2122 0.900176 50.2677 0.766142C50.3232 0.632107 50.4046 0.510321 50.5071 0.407738C50.6097 0.305156 50.7315 0.223787 50.8655 0.168278C50.9996 0.11277 51.1432 0.0842094 51.2883 0.0842286C51.4334 0.0841903 51.5771 0.112736 51.7111 0.168236C51.8452 0.223736 51.967 0.305102 52.0696 0.407687C52.1722 0.510271 52.2535 0.632064 52.3091 0.766108C52.3646 0.900152 52.3931 1.04382 52.3931 1.18891V21.8106C52.3931 21.9557 52.3646 22.0994 52.3091 22.2334C52.2535 22.3675 52.1722 22.4893 52.0696 22.5918C51.967 22.6944 51.8452 22.7758 51.7111 22.8313C51.5771 22.8868 51.4334 22.9153 51.2883 22.9153ZM70.1815 20.0216C70.2754 19.911 70.3466 19.7831 70.3911 19.645C70.4355 19.5069 70.4523 19.3614 70.4405 19.2168C70.4288 19.0722 70.3886 18.9313 70.3224 18.8023C70.2561 18.6732 70.1651 18.5584 70.0546 18.4645C69.944 18.3706 69.816 18.2994 69.6779 18.2549C69.5398 18.2105 69.3943 18.1937 69.2497 18.2055C69.1051 18.2172 68.9643 18.2574 68.8352 18.3236C68.7061 18.3898 68.5914 18.4809 68.4975 18.5914C67.3559 19.9352 65.6472 20.7059 63.8087 20.7059C60.763 20.7059 58.2851 18.2281 58.2851 15.1824C58.2851 12.1368 60.763 9.65903 63.8087 9.65903C66.2835 9.65903 68.3511 11.4371 68.7998 13.7831H62.0408C61.8957 13.7831 61.752 13.8117 61.618 13.8672C61.4839 13.9227 61.3621 14.0041 61.2595 14.1067C61.157 14.2093 61.0756 14.3311 61.0201 14.4651C60.9646 14.5992 60.9361 14.7429 60.9361 14.888C60.9361 15.033 60.9646 15.1767 61.0201 15.3107C61.0756 15.4448 61.157 15.5665 61.2596 15.6691C61.3622 15.7717 61.484 15.8531 61.618 15.9086C61.752 15.9641 61.8957 15.9927 62.0408 15.9926H69.9948C70.1399 15.9927 70.2836 15.9641 70.4176 15.9086C70.5517 15.8531 70.6734 15.7718 70.776 15.6692C70.8786 15.5666 70.96 15.4448 71.0155 15.3107C71.071 15.1767 71.0995 15.033 71.0995 14.888V14.7405C71.0995 10.72 67.8289 7.44923 63.8082 7.44923C59.5441 7.44923 56.075 10.9183 56.075 15.1824C56.075 19.4465 59.5447 22.9153 63.8087 22.9153C66.2966 22.9153 68.6194 21.8605 70.1815 20.0216ZM46.5013 21.8106V14.7401C46.5013 10.7196 43.2307 7.44894 39.2101 7.44894C34.9459 7.44894 31.4768 10.918 31.4768 15.1821C31.4768 19.4462 34.9459 22.9153 39.2101 22.9153C39.3552 22.9153 39.4989 22.8868 39.6329 22.8313C39.7669 22.7757 39.8887 22.6944 39.9913 22.5918C40.0939 22.4892 40.1753 22.3674 40.2308 22.2334C40.2863 22.0994 40.3148 21.9557 40.3148 21.8106C40.3148 21.6655 40.2863 21.5219 40.2308 21.3878C40.1753 21.2538 40.0939 21.132 39.9913 21.0294C39.8888 20.9268 39.767 20.8455 39.6329 20.79C39.4989 20.7345 39.3552 20.7059 39.2101 20.7059C36.1645 20.7059 33.6866 18.2281 33.6866 15.1824C33.6866 12.1368 36.1645 9.65903 39.2101 9.65903C42.012 9.65903 44.2919 11.9385 44.2919 14.7408V21.8109C44.2919 21.956 44.3204 22.0997 44.3759 22.2337C44.4314 22.3677 44.5128 22.4895 44.6154 22.5921C44.718 22.6947 44.8398 22.7761 44.9738 22.8316C45.1078 22.8871 45.2515 22.9156 45.3966 22.9156C45.6896 22.9155 45.9705 22.799 46.1777 22.5918C46.3848 22.3846 46.5012 22.1036 46.5013 21.8106ZM13.0614 18.4964C13.0614 17.4183 12.6654 15.9476 10.7786 15.064C9.64653 14.5336 8.22598 14.3158 6.8522 14.1051C3.63375 13.6116 2.4909 13.1993 2.4909 11.8679C2.4909 10.4175 4.50225 9.65859 6.48927 9.65859C7.7414 9.65859 9.54076 9.91108 11.0038 11.1143C11.1159 11.2064 11.2451 11.2756 11.3839 11.3179C11.5227 11.3602 11.6685 11.3747 11.8129 11.3606C11.9573 11.3465 12.0976 11.3042 12.2256 11.2359C12.3537 11.1676 12.467 11.0748 12.5592 10.9627C12.6513 10.8507 12.7205 10.7215 12.7628 10.5827C12.8051 10.4439 12.8196 10.2981 12.8055 10.1537C12.7915 10.0093 12.7491 9.86902 12.6808 9.74097C12.6125 9.61292 12.5197 9.49958 12.4076 9.40741C10.4393 7.78842 8.10272 7.4485 6.48956 7.4485C2.22442 7.4485 0.281835 9.73916 0.281835 11.8674C0.281835 12.9528 0.679443 14.4332 2.57336 15.3233C3.7117 15.8582 5.13837 16.0767 6.51797 16.2884C9.71661 16.779 10.8523 17.186 10.8523 18.4959C10.8523 19.8175 9.27457 20.7052 6.92695 20.7052C4.52352 20.7052 2.69182 19.7306 1.81413 19.1495C1.56979 18.9878 1.27124 18.9298 0.984145 18.9882C0.697046 19.0466 0.444899 19.2167 0.283147 19.461C0.203064 19.5819 0.147596 19.7175 0.11991 19.8599C0.0922242 20.0023 0.0928625 20.1488 0.121789 20.291C0.150715 20.4331 0.207362 20.5682 0.288496 20.6885C0.369629 20.8088 0.47366 20.9119 0.594648 20.992C2.46744 22.2323 4.71628 22.9153 6.92622 22.9153C11.1644 22.9153 13.0614 20.6957 13.0614 18.4964ZM29.0792 19.6547C29.2414 19.4107 29.2999 19.1123 29.2421 18.825C29.1843 18.5378 29.0147 18.2853 28.7708 18.123C28.5267 17.9609 28.2283 17.9023 27.941 17.9601C27.6538 18.018 27.4013 18.1876 27.2391 18.4316C26.2929 19.8557 24.7095 20.7055 23.0039 20.7055C19.9583 20.7055 17.4804 18.2278 17.4804 15.1821C17.4804 12.1365 19.9583 9.65873 23.0039 9.65873C24.7097 9.65873 26.2929 10.5086 27.2391 11.9326C27.3194 12.0535 27.4227 12.1573 27.5431 12.2382C27.6636 12.3191 27.7988 12.3755 27.941 12.4041C28.0833 12.4328 28.2297 12.4331 28.3721 12.4051C28.5145 12.3772 28.65 12.3214 28.7708 12.2411C28.8916 12.1608 28.9954 12.0575 29.0763 11.937C29.1572 11.8166 29.2136 11.6814 29.2423 11.5392C29.2709 11.397 29.2713 11.2505 29.2433 11.1081C29.2153 10.9658 29.1595 10.8303 29.0792 10.7095C27.7225 8.6677 25.4511 7.4488 23.0039 7.4488C18.7398 7.4488 15.2707 10.9179 15.2707 15.1821C15.2707 19.4462 18.7398 22.9153 23.0039 22.9153C25.4513 22.9153 27.7225 21.6964 29.0792 19.6547Z" fill="white"></path></svg>