<svg width="99" height="21" viewBox="0 0 99 21" fill="none" xmlns="http://www.w3.org/2000/svg">
        <g clip-path="url(#clip0_3942_203)">
                <g clip-path="url(#clip1_3942_203)">
                        <mask id="mask0_3942_203" style="mask-type:luminance"
                                maskUnits="userSpaceOnUse" x="0" y="0" width="99" height="21">
                                <path d="M98.1992 0.5H0.199219V20.5H98.1992V0.5Z" fill="white"></path>
                        </mask>
                        <g mask="url(#mask0_3942_203)">
                                <path
                                        d="M9.66307 9.48913H6.71731V20.1722H3.00085V9.48913H0.199219V6.23776H3.00085V2.90443L6.71731 2.1394V6.23776H9.66307V9.48913Z"
                                        fill="white"></path>
                                <path
                                        d="M25.1715 11.3197V20.1721H21.4551V12.4672C21.4551 10.582 20.1972 9.35246 18.2818 9.35246C16.2234 9.35246 14.8512 10.6047 14.8512 12.5219V20.1721H11.1348V0.5H14.8512V8.06831C15.9661 6.64754 17.5671 5.90528 19.4825 5.90528C22.9131 5.90984 25.1715 8.03643 25.1715 11.3197Z"
                                        fill="white"></path>
                                <path
                                        d="M35.6148 6.01904V9.68025C32.8751 9.68025 31.3552 11.1829 31.3552 13.5327V20.172H27.6387V6.23762H31.3552V8.28681C32.4129 6.86604 33.8995 6.01904 35.6148 6.01904Z"
                                        fill="white"></path>
                                <path
                                        d="M51.6243 14.4345H40.0461C40.5321 16.2105 42.0187 17.358 43.9627 17.358C45.5636 17.358 46.9072 16.6476 47.479 15.6913H51.4539C50.395 18.5374 47.5076 20.5001 43.9055 20.5001C39.4457 20.5001 36.0723 17.358 36.0723 13.205C36.0723 9.05199 39.4457 5.90991 43.9055 5.90991C48.3652 5.90991 51.7386 9.05199 51.7386 13.2323C51.745 13.6358 51.7067 14.0388 51.6243 14.4345ZM40.1033 11.8389H47.7363C47.2503 10.1449 45.7351 9.02466 43.9055 9.02466C42.0473 9.02466 40.5893 10.1449 40.1033 11.8389Z"
                                        fill="white"></path>
                                <path
                                        d="M68.5775 6.23767V20.1721H64.8562V18.3415C64.2899 19.0237 63.5679 19.5732 62.7455 19.9481C61.923 20.323 61.0218 20.5133 60.1106 20.5045C56.0511 20.5045 52.9922 17.3624 52.9922 13.2094C52.9922 9.05643 56.0511 5.91435 60.1106 5.91435C61.0218 5.90557 61.923 6.09588 62.7455 6.47076C63.5679 6.84563 64.2899 7.39516 64.8562 8.07738V6.23767H68.5775ZM64.8562 13.2048C64.8562 11.0191 63.141 9.35242 60.8253 9.35242C58.5383 9.35242 56.823 11.0191 56.823 13.2048C56.823 15.3906 58.5383 17.0573 60.8253 17.0573C63.1457 17.0573 64.8562 15.3906 64.8562 13.2048Z"
                                        fill="white"></path>
                                <path
                                        d="M85.6684 0.5V20.1721H81.952V18.3415C81.3856 19.0237 80.6636 19.5733 79.8412 19.9481C79.0187 20.323 78.1175 20.5133 77.2063 20.5046C73.1468 20.5046 70.0879 17.3625 70.0879 13.2095C70.0879 9.05647 73.1468 5.91439 77.2063 5.91439C78.1175 5.90561 79.0187 6.09592 79.8412 6.47079C80.6636 6.84567 81.3856 7.39519 81.952 8.07741V0.5H85.6684ZM81.952 13.2049C81.952 11.0191 80.2367 9.35246 77.921 9.35246C75.634 9.35246 73.9187 11.0191 73.9187 13.2049C73.9187 15.3907 75.634 17.0574 77.921 17.0574C80.2367 17.0574 81.952 15.3907 81.952 13.2049Z"
                                        fill="white"></path>
                                <path
                                        d="M87.3066 15.9917H91.0517C91.0517 16.866 91.8235 17.5764 92.7955 17.5764C93.7104 17.5764 94.4251 17.0299 94.4251 16.3241C94.4251 15.3678 93.3101 14.9033 91.9951 14.5755C89.8224 14.0837 87.5067 13.0181 87.5067 10.2039C87.5067 7.44436 89.9367 5.91431 92.7383 5.91431C95.7401 5.91431 97.9986 7.82688 97.9986 10.2039H94.2535C94.2535 9.46622 93.596 8.83781 92.705 8.83781C91.9045 8.83781 91.247 9.35693 91.247 9.98535C91.247 10.8596 92.2762 11.3788 93.7914 11.7339C96.0546 12.2804 98.1987 13.346 98.1987 16.0236C98.1987 18.8696 95.7401 20.5044 92.7669 20.5044C89.6222 20.4999 87.3066 18.478 87.3066 15.9917Z"
                                        fill="white"></path>
                        </g>
                </g>
        </g>
        <defs>
                <clipPath id="clip0_3942_203">
                        <rect width="98" height="20" fill="white"
                                transform="translate(0.199219 0.5)"></rect>
                </clipPath>
                <clipPath id="clip1_3942_203">
                        <rect width="98" height="20" fill="white"
                                transform="translate(0.199219 0.5)"></rect>
                </clipPath>
        </defs>
</svg>